<svg width="41" height="40" viewBox="0 0 41 40" fill="none" xmlns="http://www.w3.org/2000/svg">
<rect width="40" height="40" transform="translate(0.202148)" fill="white"/>
<circle cx="20" cy="19" r="10.3739" stroke="#67676B" stroke-width="1.25229"/>
<circle cx="20" cy="16" r="3.55" stroke="#67676B" stroke-width="0.9"/>
<mask id="path-3-inside-1_325_1262" fill="white">
<path fill-rule="evenodd" clip-rule="evenodd" d="M12.1274 25.9033C13.6995 23.0411 16.7424 21.1011 20.2385 21.1011C23.7347 21.1011 26.7778 23.0413 28.3497 25.9037C28.156 26.1244 27.9533 26.3371 27.7424 26.5413C26.353 23.8083 23.5144 21.9359 20.2385 21.9359C16.9627 21.9359 14.1242 23.8082 12.7347 26.541C12.5238 26.3368 12.3212 26.124 12.1274 25.9033Z"/>
</mask>
<path fill-rule="evenodd" clip-rule="evenodd" d="M12.1274 25.9033C13.6995 23.0411 16.7424 21.1011 20.2385 21.1011C23.7347 21.1011 26.7778 23.0413 28.3497 25.9037C28.156 26.1244 27.9533 26.3371 27.7424 26.5413C26.353 23.8083 23.5144 21.9359 20.2385 21.9359C16.9627 21.9359 14.1242 23.8082 12.7347 26.541C12.5238 26.3368 12.3212 26.124 12.1274 25.9033Z" fill="#67676B"/>
<path d="M12.1274 25.9033L11.0318 25.3015L10.6101 26.0694L11.188 26.7279L12.1274 25.9033ZM28.3497 25.9037L29.2891 26.7283L29.8671 26.0699L29.4454 25.302L28.3497 25.9037ZM27.7424 26.5413L26.6281 27.1078L27.3954 28.6171L28.6119 27.4394L27.7424 26.5413ZM12.7347 26.541L11.8652 27.439L13.0816 28.6168L13.849 27.1075L12.7347 26.541ZM20.2385 19.8511C16.2682 19.8511 12.8146 22.0557 11.0318 25.3015L13.2231 26.505C14.5844 24.0265 17.2167 22.3511 20.2385 22.3511V19.8511ZM29.4454 25.302C27.6627 22.0559 24.209 19.8511 20.2385 19.8511V22.3511C23.2604 22.3511 25.8928 24.0266 27.2541 26.5054L29.4454 25.302ZM27.4103 25.079C27.2389 25.2743 27.0596 25.4626 26.8729 25.6433L28.6119 27.4394C28.8471 27.2117 29.073 26.9744 29.2891 26.7283L27.4103 25.079ZM28.8567 25.9749C27.2624 22.8389 24.0029 20.6859 20.2385 20.6859V23.1859C23.0258 23.1859 25.4436 24.7778 26.6281 27.1078L28.8567 25.9749ZM20.2385 20.6859C16.4742 20.6859 13.2149 22.8387 11.6205 25.9745L13.849 27.1075C15.0336 24.7777 17.4512 23.1859 20.2385 23.1859V20.6859ZM13.6042 25.643C13.4176 25.4622 13.2383 25.274 13.0669 25.0787L11.188 26.7279C11.4041 26.974 11.63 27.2113 11.8652 27.439L13.6042 25.643Z" fill="#67676B" mask="url(#path-3-inside-1_325_1262)"/>
</svg>
