<svg width="41" height="40" viewBox="0 0 41 40" fill="none" xmlns="http://www.w3.org/2000/svg">
<rect width="40" height="40" transform="translate(0.955078)" fill="white"/>
<circle cx="21" cy="19" r="11" fill="#67676B"/>
<path d="M19.1685 13.5043C18.8985 14.6856 19.6807 16.6974 21.003 16.6974C22.316 16.6974 23.0982 14.6856 22.8281 13.5043C22.6233 12.5999 21.8224 12 21.003 12C20.1742 12 19.3827 12.5999 19.1685 13.5043ZM15.3227 14.3349C15.0899 15.3316 15.7603 17.0389 16.8778 17.0389C17.9952 17.0389 18.6657 15.3316 18.4329 14.3349C18.2559 13.5689 17.5762 13.0521 16.8778 13.0521C16.1794 13.0521 15.4996 13.5689 15.3227 14.3349ZM23.5731 14.3349C23.3403 15.3316 24.0107 17.0389 25.1189 17.0389C26.2363 17.0389 26.9068 15.3316 26.674 14.3349C26.497 13.5689 25.8173 13.0521 25.1189 13.0521C24.4298 13.0521 23.75 13.5689 23.5731 14.3349ZM23.0237 24.8833L24.1877 20.915C24.914 18.617 23.5265 17.205 21.003 17.205C18.4701 17.205 17.0826 18.617 17.7997 20.915L18.973 24.8833C19.1871 25.5478 20.0718 26 21.003 26C21.9156 26 22.8095 25.5478 23.0237 24.8833ZM17.3434 17.8418C16.8871 18.4601 16.4494 19.5307 16.9523 21.1549L17.9952 24.6526C17.6786 24.8372 17.2782 24.9387 16.8778 24.9387C16.0863 24.9387 15.3413 24.5603 15.1551 23.9881L14.1587 20.6196C13.5534 18.6724 14.7267 17.4819 16.8778 17.4819C17.1292 17.4819 17.3806 17.5003 17.6134 17.5372C17.5203 17.6295 17.4272 17.7403 17.3434 17.8418ZM25.1189 17.4819C27.2699 17.4819 28.4526 18.6724 27.838 20.6196L26.8416 23.9881C26.6553 24.5603 25.9104 24.9387 25.1189 24.9387C24.7185 24.9387 24.318 24.8372 24.0014 24.6526L25.0351 21.1734C25.5472 19.5307 25.1096 18.4601 24.644 17.8418C24.5695 17.7403 24.4763 17.6295 24.3832 17.5372C24.616 17.5003 24.8581 17.4819 25.1189 17.4819Z" fill="white"/>
</svg>
