<svg width="41" height="40" viewBox="0 0 41 40" fill="none" xmlns="http://www.w3.org/2000/svg">
<g clip-path="url(#clip0_323_475)">
<rect width="40" height="40" transform="translate(0.955078)" fill="white"/>
<circle cx="21" cy="17" r="11" fill="#67676B"/>
<path d="M20.7134 35.7585V35.0945H14.2734V35.7585H20.7134ZM19.8734 30.4385H15.0174V31.0865H19.0494C19.0494 32.2385 18.9294 33.7825 18.7534 34.4945L19.5614 34.5985C19.7534 33.6625 19.8734 32.3265 19.8734 30.4385ZM26.7953 36.7105V34.2465H25.9793V34.9025H22.8433V34.2625H22.0193V36.7105H26.7953ZM26.9553 32.6385V32.0065H22.8673V31.5185H26.7713V29.8305H22.0273V30.4545H25.9473V30.9265H22.0433V32.6385H26.9553ZM24.8113 34.6145V33.7825H27.6353V33.1265H21.1953V33.7825H23.9953V34.6145H24.8113ZM25.9793 36.0545H22.8433V35.5425H25.9793V36.0545Z" fill="#6C6D6C"/>
<path d="M19.1685 11.5043C18.8985 12.6856 19.6807 14.6974 21.003 14.6974C22.316 14.6974 23.0982 12.6856 22.8281 11.5043C22.6233 10.5999 21.8224 10 21.003 10C20.1742 10 19.3827 10.5999 19.1685 11.5043ZM15.3227 12.3349C15.0899 13.3316 15.7603 15.0389 16.8778 15.0389C17.9952 15.0389 18.6657 13.3316 18.4329 12.3349C18.2559 11.5689 17.5762 11.0521 16.8778 11.0521C16.1794 11.0521 15.4996 11.5689 15.3227 12.3349ZM23.5731 12.3349C23.3403 13.3316 24.0107 15.0389 25.1189 15.0389C26.2363 15.0389 26.9068 13.3316 26.674 12.3349C26.497 11.5689 25.8173 11.0521 25.1189 11.0521C24.4298 11.0521 23.75 11.5689 23.5731 12.3349ZM23.0237 22.8833L24.1877 18.915C24.914 16.617 23.5265 15.205 21.003 15.205C18.4701 15.205 17.0826 16.617 17.7997 18.915L18.973 22.8833C19.1871 23.5478 20.0718 24 21.003 24C21.9156 24 22.8095 23.5478 23.0237 22.8833ZM17.3434 15.8418C16.8871 16.4601 16.4494 17.5307 16.9523 19.1549L17.9952 22.6526C17.6786 22.8372 17.2782 22.9387 16.8778 22.9387C16.0863 22.9387 15.3413 22.5603 15.1551 21.9881L14.1587 18.6196C13.5534 16.6724 14.7267 15.4819 16.8778 15.4819C17.1292 15.4819 17.3806 15.5003 17.6134 15.5372C17.5203 15.6295 17.4272 15.7403 17.3434 15.8418ZM25.1189 15.4819C27.2699 15.4819 28.4526 16.6724 27.838 18.6196L26.8416 21.9881C26.6553 22.5603 25.9104 22.9387 25.1189 22.9387C24.7185 22.9387 24.318 22.8372 24.0014 22.6526L25.0351 19.1734C25.5472 17.5307 25.1096 16.4601 24.644 15.8418C24.5695 15.7403 24.4763 15.6295 24.3832 15.5372C24.616 15.5003 24.8581 15.4819 25.1189 15.4819Z" fill="white"/>
</g>
<defs>
<clipPath id="clip0_323_475">
<rect width="40" height="40" fill="white" transform="translate(0.955078)"/>
</clipPath>
</defs>
</svg>
