<svg width="40" height="40" viewBox="0 0 40 40" fill="none" xmlns="http://www.w3.org/2000/svg">
<rect width="40" height="40" fill="white"/>
<path fill-rule="evenodd" clip-rule="evenodd" d="M27.136 18.3286H28.386H29.4513L20.2489 9.4214L11.0464 18.3286H11.6885H12.9385V19.5786V28.5536C12.9385 28.7854 13.1264 28.9733 13.3582 28.9733H15.8628C16.0946 28.9733 16.2825 28.7854 16.2825 28.5536V22.7095V21.4595H17.5325H22.542H23.792V22.7095V28.5536C23.792 28.7854 23.9799 28.9733 24.2117 28.9733H26.7163C26.9481 28.9733 27.136 28.7854 27.136 28.5536V19.5786V18.3286ZM30.1884 19.042C30.1882 19.0418 30.188 19.0416 30.1878 19.0414L30.1884 19.042ZM17.5325 23.9595V22.7095H18.7825H21.292H22.542V23.9595V28.5536C22.542 29.4757 23.2896 30.2233 24.2117 30.2233H26.7163C27.6385 30.2233 28.386 29.4757 28.386 28.5536V20.8286V19.5786H29.636H30.4771C31.2275 19.5786 31.5969 18.6657 31.0578 18.1438L20.8295 8.24377C20.5058 7.93046 19.9919 7.93046 19.6682 8.24377L9.43999 18.1438C8.90082 18.6657 9.27026 19.5786 10.0206 19.5786H10.4385H11.6885V20.8286V28.5536C11.6885 29.4757 12.436 30.2233 13.3582 30.2233H15.8628C16.785 30.2233 17.5325 29.4757 17.5325 28.5536V23.9595Z" fill="#67676B"/>
</svg>
