<svg width="40" height="41" viewBox="0 0 40 41" fill="none" xmlns="http://www.w3.org/2000/svg">
<g clip-path="url(#clip0_326_574)">
<rect width="40" height="40" transform="translate(0 0.926758)" fill="white"/>
<path d="M13.6384 32.536H15.0864C15.0224 33.464 14.3024 34.176 13.3504 34.496L13.8064 35.136C14.5424 34.888 15.2784 34.2 15.5184 33.552C15.8224 34.176 16.5744 34.744 17.1424 34.92L17.5584 34.288C16.7824 34.072 16.0144 33.488 15.9424 32.536H17.3984V31.88H13.6384V32.536ZM19.3744 37.464V36.8H15.3104V35.336H14.4944V37.464H19.3744ZM19.1824 35.672V30.504H18.3664V35.672H19.1824ZM14.5104 31.4H16.5264V30.744H14.5104V31.4ZM25.8242 30.912H21.0562V31.584H25.0002C24.9922 32.408 24.9362 33.32 24.8002 33.952H20.2402V34.616H23.0402V37.632H23.8562V34.616H26.6802V33.952H25.5842C25.7602 33.104 25.8242 32.104 25.8242 30.912Z" fill="#1975F5"/>
<path fill-rule="evenodd" clip-rule="evenodd" d="M20.0002 20.2085C17.0086 20.2085 14.5836 22.7188 14.5836 25.8119V28.4269H25.4169V25.8119C25.4169 22.7188 22.9919 20.2085 20.0002 20.2085ZM10.0002 26.1855V28.4269H12.9169V25.8119C12.9169 24.2729 13.2169 22.8683 13.7086 21.8522C11.5752 22.3602 10.0002 24.1085 10.0002 26.1855ZM27.0836 28.4269H30.0002V26.1855C30.0002 24.1085 28.4252 22.3602 26.2919 21.8522C26.7836 22.8683 27.0836 24.2729 27.0836 25.8119V28.4269Z" fill="#1975F5"/>
<circle cx="20.037" cy="12.6146" r="5.00917" fill="#1975F5"/>
<path fill-rule="evenodd" clip-rule="evenodd" d="M16.8328 18.5577C14.8667 17.9637 13.435 16.1381 13.435 13.9782C13.435 13.5043 13.504 13.0465 13.6323 12.6143C11.6237 12.6902 10.0186 14.3425 10.0186 16.3697C10.0186 18.4453 11.7012 20.128 13.7768 20.128C15.0361 20.128 16.1508 19.5085 16.8328 18.5577Z" fill="#1975F5"/>
<path fill-rule="evenodd" clip-rule="evenodd" d="M23.3765 18.5576C25.3425 17.9636 26.7741 16.1381 26.7741 13.9782C26.7741 13.5043 26.7052 13.0465 26.5768 12.6143C28.5855 12.6901 30.1907 14.3425 30.1907 16.3697C30.1907 18.4453 28.5081 20.128 26.4325 20.128C25.1731 20.128 24.0584 19.5085 23.3765 18.5576Z" fill="#1975F5"/>
</g>
<defs>
<clipPath id="clip0_326_574">
<rect width="40" height="40" fill="white" transform="translate(0 0.926758)"/>
</clipPath>
</defs>
</svg>
