<svg width="41" height="40" viewBox="0 0 41 40" fill="none" xmlns="http://www.w3.org/2000/svg">
<g clip-path="url(#clip0_323_477)">
<rect width="40" height="40" transform="translate(0.990234)" fill="white"/>
<path fill-rule="evenodd" clip-rule="evenodd" d="M11.5598 9C10.1811 9 9.06348 10.1176 9.06348 11.4963V19.4766C9.06348 20.8553 10.1811 21.973 11.5598 21.973H30.5671C31.9458 21.973 33.0635 20.8553 33.0635 19.4766V11.4963C33.0635 10.1176 31.9458 9 30.5671 9H11.5598ZM15.4973 18.2972V17.6274H12.5536V12.0856H11.7302V18.2972H12.3915H12.5536H15.4973ZM17.9348 18.2972V12.0856H17.1114V18.2972H17.9348ZM21.8356 18.2972H21.7418L19.4466 12.0856H20.3382L22.1004 17.2063L23.8792 12.0856H24.7708L22.4713 18.2972H22.3774H21.8356ZM30.1648 18.2972V17.6274H27.0419V15.426H29.7296V14.7562H27.0419V12.7597H30.1221V12.0856H27.0419H26.8756H26.2186V18.2972H26.8756H27.0419H30.1648Z" fill="#67676B"/>
<path d="M17.4473 33.1345V32.4545H16.3833V29.6705H15.5593V36.7985H16.3833V33.1345H17.4473ZM14.9993 34.2305C14.0553 34.4145 12.6313 34.4625 11.9273 34.4625V32.9185H14.3033V30.2945H11.0793V30.9505H13.4793V32.2625H11.1113V35.1425H11.9033C13.1113 35.1265 14.3033 35.0465 15.0873 34.9025L14.9993 34.2305ZM23.6332 36.7985V29.6705H22.8172V36.7985H23.6332ZM17.9772 32.7185C17.9772 34.2225 18.6572 35.2145 19.8012 35.2145C20.9452 35.2145 21.6092 34.2225 21.6092 32.7265C21.6092 31.2145 20.9452 30.2225 19.8012 30.2225C18.6572 30.2225 17.9772 31.2145 17.9772 32.7185ZM20.8332 32.7185C20.8332 33.8625 20.4092 34.5505 19.8012 34.5505C19.2012 34.5505 18.7852 33.8625 18.7852 32.7185C18.7852 31.5745 19.2012 30.8945 19.8012 30.8945C20.4092 30.8945 20.8332 31.5745 20.8332 32.7185ZM31.1311 35.8385V35.1825H24.691V35.8385H31.1311ZM30.3231 33.8145V30.1985H29.5071V31.3905H26.323V30.2065H25.507V33.8145H30.3231ZM29.5071 33.1505H26.323V32.0305H29.5071V33.1505Z" fill="#6C6D6C"/>
</g>
<defs>
<clipPath id="clip0_323_477">
<rect width="40" height="40" fill="white" transform="translate(0.990234)"/>
</clipPath>
</defs>
</svg>
