<svg width="41" height="41" viewBox="0 0 41 41" fill="none" xmlns="http://www.w3.org/2000/svg">
<g clip-path="url(#clip0_323_484)">
<rect width="40" height="40" transform="translate(0.605957 0.926758)" fill="white"/>
<circle cx="19.8075" cy="15.119" r="8.34862" stroke="#1975F5" stroke-width="1.66972"/>
<path d="M26.9336 19.4219L31.8736 24.3619C32.5257 25.0139 32.5257 26.0711 31.8736 26.7232L31.2832 27.3135C30.6312 27.9656 29.574 27.9656 28.9219 27.3135L23.9819 22.3736L26.9336 19.4219Z" fill="#1975F5"/>
<path d="M19.7958 34.496V30.504H18.9718V32.296H17.5638V32.976H18.9718V34.496H19.7958ZM17.5558 30.952H14.2998V31.64H16.6438C16.4118 32.864 15.3078 33.664 13.9718 34.008L14.4118 34.672C16.3478 34.016 17.4598 32.912 17.5558 30.952ZM19.8038 37.544V34.864H15.1478V37.544H19.8038ZM18.9798 36.888H15.9798V35.512H18.9798V36.888ZM26.8537 34.704V30.504H26.0697V32.24H25.3817V30.632H24.6057V34.616H25.3817V32.92H26.0697V34.704H26.8537ZM22.0057 35.048V35.704H26.0377V37.64H26.8537V35.048H22.0057ZM24.4297 33.728C23.7657 33.408 23.0457 32.704 23.0457 31.68V30.952H22.2537V31.704C22.2537 32.736 21.6297 33.528 20.8057 33.984L21.2777 34.56C21.9017 34.24 22.4777 33.592 22.6697 33.032C22.8617 33.52 23.5337 34.112 24.0137 34.336L24.4297 33.728Z" fill="#1975F5"/>
</g>
<defs>
<clipPath id="clip0_323_484">
<rect width="40" height="40" fill="white" transform="translate(0.605957 0.926758)"/>
</clipPath>
</defs>
</svg>
