<svg width="41" height="41" viewBox="0 0 41 41" fill="none" xmlns="http://www.w3.org/2000/svg">
<g clip-path="url(#clip0_325_1275)">
<rect width="40" height="40" transform="translate(0.404297 0.926758)" fill="white"/>
<path d="M24.1978 26.8852C24.1978 29.2289 22.4792 31.0595 20.4409 31.0595C18.4026 31.0595 16.684 29.2289 16.684 26.8852C16.684 24.5415 18.4026 22.7109 20.4409 22.7109C22.4792 22.7109 24.1978 24.5415 24.1978 26.8852Z" stroke="#1975F5" stroke-width="0.834862"/>
<rect x="1.00049" y="40" width="38" height="2" rx="1" fill="#1975F5"/>
<path d="M24.2754 27.1249C24.2754 29.4687 22.5569 31.2993 20.5186 31.2993C18.4802 31.2993 16.7617 29.4687 16.7617 27.1249C16.7617 24.7812 18.4802 22.9506 20.5186 22.9506C22.5569 22.9506 24.2754 24.7812 24.2754 27.1249Z" fill="#1975F5" stroke="#1975F5" stroke-width="0.834862"/>
<path fill-rule="evenodd" clip-rule="evenodd" d="M24.9517 12.0625C26.1369 13.3825 26.8028 15.1733 26.8028 17.04C26.8028 25.2537 29.9633 27.6 29.9633 27.6H11C11 27.6 14.1606 25.2537 14.1606 17.04C14.1606 15.1733 14.8264 13.3825 16.0116 12.0625C17.1978 10.7414 18.8055 10 20.4817 10C22.1568 10 23.7655 10.7425 24.9517 12.0625Z" fill="#1975F5"/>
<path d="M24.9517 12.0625L25.4112 11.65L25.411 11.6498L24.9517 12.0625ZM29.9633 27.6V28.2174C30.2296 28.2174 30.466 28.0467 30.5495 27.7938C30.6331 27.541 30.5452 27.263 30.3314 27.1042L29.9633 27.6ZM11 27.6L10.632 27.1042C10.4181 27.263 10.3302 27.541 10.4138 27.7938C10.4974 28.0467 10.7337 28.2174 11 28.2174V27.6ZM16.0116 12.0625L15.5522 11.65L15.5522 11.65L16.0116 12.0625ZM27.4202 17.04C27.4202 15.0298 26.7038 13.0897 25.4112 11.65L24.4923 12.475C25.5701 13.6753 26.1853 15.3168 26.1853 17.04H27.4202ZM29.9633 27.6C30.3314 27.1042 30.3317 27.1045 30.3321 27.1048C30.3322 27.1049 30.3326 27.1052 30.3328 27.1053C30.3333 27.1057 30.3337 27.106 30.334 27.1062C30.3347 27.1068 30.3352 27.1071 30.3356 27.1074C30.3362 27.1079 30.3361 27.1078 30.3353 27.1072C30.3336 27.1059 30.3291 27.1023 30.3219 27.0963C30.3074 27.0843 30.2821 27.0627 30.2475 27.0306C30.1783 26.9663 30.0717 26.8601 29.9398 26.705C29.6762 26.3951 29.3096 25.8882 28.9375 25.1286C28.1944 23.6112 27.4202 21.0662 27.4202 17.04H26.1853C26.1853 21.2275 26.9914 23.9625 27.8285 25.6717C28.2466 26.5254 28.6702 27.1184 28.9992 27.5051C29.1635 27.6983 29.3039 27.8395 29.4075 27.9357C29.4593 27.9838 29.5019 28.0206 29.5338 28.047C29.5497 28.0602 29.5629 28.0708 29.5732 28.0789C29.5784 28.0829 29.5828 28.0863 29.5865 28.0891C29.5883 28.0905 29.59 28.0918 29.5915 28.0929C29.5922 28.0935 29.5929 28.094 29.5935 28.0944C29.5938 28.0947 29.5943 28.095 29.5944 28.0951C29.5949 28.0954 29.5953 28.0958 29.9633 27.6ZM11 28.2174H29.9633V26.9826H11V28.2174ZM13.5431 17.04C13.5431 21.0662 12.7689 23.6112 12.0258 25.1286C11.6537 25.8882 11.2871 26.3951 11.0235 26.705C10.8916 26.8601 10.785 26.9663 10.7158 27.0306C10.6812 27.0627 10.6559 27.0843 10.6414 27.0963C10.6342 27.1023 10.6297 27.1059 10.628 27.1072C10.6272 27.1078 10.6271 27.1079 10.6278 27.1074C10.6281 27.1071 10.6286 27.1068 10.6293 27.1062C10.6296 27.106 10.63 27.1057 10.6305 27.1053C10.6307 27.1052 10.6311 27.1049 10.6312 27.1048C10.6316 27.1045 10.632 27.1042 11 27.6C11.368 28.0958 11.3685 28.0954 11.3689 28.0951C11.369 28.095 11.3695 28.0947 11.3698 28.0944C11.3704 28.094 11.3711 28.0935 11.3719 28.0929C11.3733 28.0918 11.375 28.0905 11.3768 28.0891C11.3805 28.0863 11.3849 28.0829 11.3901 28.0789C11.4004 28.0708 11.4136 28.0602 11.4296 28.047C11.4614 28.0206 11.504 27.9838 11.5558 27.9357C11.6595 27.8395 11.7998 27.6983 11.9641 27.5051C12.2931 27.1184 12.7167 26.5254 13.1348 25.6717C13.9719 23.9625 14.778 21.2275 14.778 17.04H13.5431ZM15.5522 11.65C14.2595 13.0897 13.5431 15.0298 13.5431 17.04H14.778C14.778 15.3168 15.3932 13.6753 16.471 12.475L15.5522 11.65ZM20.4817 9.38256C18.619 9.38256 16.8478 10.2071 15.5522 11.65L16.471 12.475C17.5479 11.2757 18.9921 10.6174 20.4817 10.6174V9.38256ZM25.411 11.6498C24.1155 10.2083 22.3435 9.38256 20.4817 9.38256V10.6174C21.97 10.6174 23.4154 11.2767 24.4925 12.4752L25.411 11.6498Z" fill="#1975F5"/>
<line x1="14.0779" y1="28.7397" x2="26.0779" y2="28.7397" stroke="white"/>
</g>
<defs>
<clipPath id="clip0_325_1275">
<rect width="40" height="40" fill="white" transform="translate(0.404297 0.926758)"/>
</clipPath>
</defs>
</svg>
