<svg width="41" height="41" viewBox="0 0 41 41" fill="none" xmlns="http://www.w3.org/2000/svg">
<g clip-path="url(#clip0_325_1281)">
<rect width="40" height="40" transform="translate(0.916016 0.926758)" fill="white"/>
<path fill-rule="evenodd" clip-rule="evenodd" d="M11.7018 13.0078C10.2037 13.0078 8.98926 14.2223 8.98926 15.7204V23.2682C8.98926 24.7663 10.2037 25.9808 11.7018 25.9808H30.2767C31.7748 25.9808 32.9893 24.7663 32.9893 23.2682V15.7204C32.9893 14.2223 31.7748 13.0078 30.2767 13.0078H11.7018ZM15.8117 23.305V22.5772H12.6131V16.5555H11.7184V23.305H12.4369H12.6131H15.8117ZM18.4604 23.305V16.5555H17.5657V23.305H18.4604ZM22.6991 23.305H22.5971L20.1031 16.5555H21.072L22.9868 22.1197L24.9196 16.5555H25.8885L23.3898 23.305H23.2878H22.6991ZM31.7497 23.305V22.5772H28.3563V20.1852H31.2768V19.4574H28.3563V17.2879H31.7033V16.5555H28.3563H28.1755H27.4616V23.305H28.1755H28.3563H31.7497Z" fill="#1975F5"/>
<rect x="1.79688" y="40" width="38" height="2" rx="1" fill="#1975F5"/>
</g>
<defs>
<clipPath id="clip0_325_1281">
<rect width="40" height="40" fill="white" transform="translate(0.916016 0.926758)"/>
</clipPath>
</defs>
</svg>
