<svg width="41" height="40" viewBox="0 0 41 40" fill="none" xmlns="http://www.w3.org/2000/svg">
<rect width="40" height="40" transform="translate(0.990234)" fill="white"/>
<path fill-rule="evenodd" clip-rule="evenodd" d="M11.5598 12C10.1811 12 9.06348 13.1176 9.06348 14.4963V22.4766C9.06348 23.8553 10.1811 24.973 11.5598 24.973H30.5671C31.9458 24.973 33.0635 23.8553 33.0635 22.4766V14.4963C33.0635 13.1176 31.9458 12 30.5671 12H11.5598ZM15.4973 21.2972V20.6274H12.5536V15.0856H11.7302V21.2972H12.3915H12.5536H15.4973ZM17.9348 21.2972V15.0856H17.1114V21.2972H17.9348ZM21.8356 21.2972H21.7418L19.4466 15.0856H20.3382L22.1004 20.2063L23.8792 15.0856H24.7708L22.4713 21.2972H22.3774H21.8356ZM30.1648 21.2972V20.6274H27.0419V18.426H29.7296V17.7562H27.0419V15.7597H30.1221V15.0856H27.0419H26.8756H26.2186V21.2972H26.8756H27.0419H30.1648Z" fill="#67676B"/>
</svg>
