<svg width="41" height="41" viewBox="0 0 41 41" fill="none" xmlns="http://www.w3.org/2000/svg">
<g clip-path="url(#clip0_323_481)">
<rect width="40" height="40" transform="translate(0.302734 0.926758)" fill="white"/>
<mask id="path-1-inside-1_323_481" fill="white">
<rect x="10.3213" y="6.77051" width="20.0367" height="20.0367" rx="0.834862"/>
</mask>
<rect x="10.3213" y="6.77051" width="20.0367" height="20.0367" rx="0.834862" fill="#1975F5" stroke="#1975F5" stroke-width="2.50459" mask="url(#path-1-inside-1_323_481)"/>
<path d="M30.5 13.4497H16.5828V20.1286H23.6791V27" stroke="white" stroke-width="0.834862"/>
<path d="M19.6291 37.632V30.504H18.8451V37.632H19.6291ZM18.2211 37.296V30.648H17.4531V33.368H16.5011V34.04H17.4531V37.296H18.2211ZM16.6291 31.36H13.9011V32.032H15.8211C15.7331 33.504 14.9091 34.792 13.4931 35.632L14.0371 36.192C15.7491 35.064 16.6131 33.536 16.6291 31.36ZM24.399 32.592C24.399 31.6 23.575 30.896 22.567 30.896C21.551 30.896 20.743 31.616 20.743 32.592C20.743 33.6 21.567 34.24 22.567 34.24C23.591 34.24 24.399 33.6 24.399 32.592ZM23.599 32.584C23.599 33.168 23.175 33.608 22.567 33.608C21.959 33.608 21.535 33.176 21.535 32.584C21.535 32.032 21.951 31.576 22.567 31.576C23.207 31.576 23.599 32.024 23.599 32.584ZM25.591 30.504V34.512H26.407V30.504H25.591ZM26.415 37.544V34.896H21.751V37.544H26.415ZM25.599 36.888H22.575V35.536H25.599V36.888Z" fill="#1975F5"/>
</g>
<defs>
<clipPath id="clip0_323_481">
<rect width="40" height="40" fill="white" transform="translate(0.302734 0.926758)"/>
</clipPath>
</defs>
</svg>
