<svg width="41" height="40" viewBox="0 0 41 40" fill="none" xmlns="http://www.w3.org/2000/svg">
<g clip-path="url(#clip0_323_474)">
<rect width="40" height="40" transform="translate(0.0371094)" fill="white"/>
<path fill-rule="evenodd" clip-rule="evenodd" d="M30.9271 15.8627C30.9271 20.9346 26.068 25.0462 20.0739 25.0462C18.9001 25.0462 17.7698 24.8885 16.711 24.5968C16.6697 24.6583 16.6098 24.7113 16.532 24.7479L13.6478 26.1008C13.3526 26.2393 13.0155 26.0368 13.0332 25.7315L13.1934 22.9652C10.768 21.281 9.2207 18.7247 9.2207 15.8627C9.2207 10.7908 14.0799 6.6792 20.0739 6.6792C26.068 6.6792 30.9271 10.7908 30.9271 15.8627ZM17.8125 16.2799L13.7426 19.2019L17.3603 13.3579L21.8825 15.8625L25.9524 12.9405L22.3347 18.7845L17.8125 16.2799Z" fill="#67676B"/>
<path d="M12.9741 30.5265H10.1261V34.8945H12.9741V32.9585H13.7421V36.4625H14.5181V29.8145H13.7421V32.2785H12.9741V30.5265ZM15.9021 36.7985V29.6705H15.1101V36.7985H15.9021ZM12.2061 34.2545H10.9021V31.1745H12.2061V34.2545ZM22.8239 36.7985V29.6705H22.0399V36.7985H22.8239ZM21.4159 36.4625V29.8145H20.6479V32.1585H19.6239V32.8385H20.6479V36.4625H21.4159ZM20.4239 34.4625C19.5919 33.9505 18.9919 32.8465 18.9919 31.4865V30.3745H18.1999V31.4945C18.1999 32.9585 17.5359 34.0865 16.6719 34.6545L17.1679 35.2145C17.8559 34.7825 18.4239 33.9905 18.5999 33.2145C18.8079 33.9585 19.4479 34.7105 19.9519 35.0305L20.4239 34.4625ZM28.1938 34.4785C27.1458 33.9105 26.3778 32.8465 26.3778 31.4065V31.0625H27.8258V30.4145H24.0418V31.0625H25.5298V31.4145C25.5298 32.8545 24.8178 33.9825 23.6818 34.6225L24.2018 35.2225C25.0498 34.7745 25.7698 33.8305 25.9538 33.0625C26.1858 33.7985 27.0498 34.7105 27.7138 35.0785L28.1938 34.4785ZM29.6098 36.7985V29.6705H28.7938V36.7985H29.6098Z" fill="#6C6D6C"/>
</g>
<defs>
<clipPath id="clip0_323_474">
<rect width="40" height="40" fill="white" transform="translate(0.0371094)"/>
</clipPath>
</defs>
</svg>
