<svg width="40" height="40" viewBox="0 0 40 40" fill="none" xmlns="http://www.w3.org/2000/svg">
<rect width="40" height="40" fill="white"/>
<path fill-rule="evenodd" clip-rule="evenodd" d="M19.2975 8.84326H16.6458C16.0152 8.84326 15.4051 8.93064 14.8268 9.09396L18.7167 14.6873H23.3617L19.2975 8.84326ZM25.3956 14.6873H29.117C28.7062 11.3927 25.8957 8.84326 22.4898 8.84326H21.3313L25.3956 14.6873ZM10.0186 14.6873C10.2803 12.5883 11.516 10.7918 13.2592 9.76432L16.6828 14.6873H10.0186Z" fill="#67676B"/>
<path fill-rule="evenodd" clip-rule="evenodd" d="M29.2204 16.3574H10.0186V22.2015C10.0186 25.8901 13.0088 28.8804 16.6975 28.8804H22.5415C26.2301 28.8804 29.2204 25.8901 29.2204 22.2015V16.3574ZM22.2544 22.0733C22.7743 21.7459 22.7743 20.9879 22.2544 20.6605L17.7682 17.8349C17.2122 17.4847 16.4884 17.8843 16.4884 18.5413L16.4884 24.1925C16.4884 24.8495 17.2122 25.2491 17.7682 24.8989L22.2544 22.0733Z" fill="#67676B"/>
</svg>
