<svg width="41" height="40" viewBox="0 0 41 40" fill="none" xmlns="http://www.w3.org/2000/svg">
<rect width="40" height="40" transform="translate(0.0371094)" fill="white"/>
<path fill-rule="evenodd" clip-rule="evenodd" d="M30.9271 18.8627C30.9271 23.9346 26.068 28.0462 20.0739 28.0462C18.9001 28.0462 17.7698 27.8885 16.711 27.5968C16.6697 27.6583 16.6098 27.7113 16.532 27.7479L13.6478 29.1008C13.3526 29.2393 13.0155 29.0368 13.0332 28.7315L13.1934 25.9652C10.768 24.281 9.2207 21.7247 9.2207 18.8627C9.2207 13.7908 14.0799 9.6792 20.0739 9.6792C26.068 9.6792 30.9271 13.7908 30.9271 18.8627ZM17.8125 19.2799L13.7426 22.2019L17.3603 16.3579L21.8825 18.8625L25.9524 15.9405L22.3347 21.7845L17.8125 19.2799Z" fill="#67676B"/>
</svg>
