<svg width="41" height="40" viewBox="0 0 41 40" fill="none" xmlns="http://www.w3.org/2000/svg">
<g clip-path="url(#clip0_323_469)">
<rect width="40" height="40" transform="translate(0.202148)" fill="white"/>
<path d="M15.8673 33.8065V33.1425H14.7873L15.0833 31.4305L14.2833 31.3185L14.0193 33.1425H12.5313L12.3873 31.3105L11.5713 31.3905L11.7633 33.1425H10.6593V33.8065H15.8673ZM16.4993 35.8465V35.1985H10.0593V35.8465H16.4993ZM15.8753 30.9105V30.2545H10.6513V30.9105H15.8753ZM22.7972 34.0465V33.3825H18.6292V32.4065H22.5892V30.1665H17.7812V30.8225H21.7732V31.7425H17.8052V34.0465H19.7812V35.2385H16.9812V35.8945H23.4212V35.2385H20.5972V34.0465H22.7972ZM30.0071 36.7425V36.0945H25.9591V35.5345H29.7671V33.7185H25.1031V34.3745H28.9511V34.9265H25.1351V36.7425H30.0071ZM25.5431 31.0625L24.7431 31.1345L24.9111 32.6065C24.5671 32.6145 24.2311 32.6225 23.9351 32.6225L24.0471 33.3105C24.7031 33.3105 25.4551 33.2865 26.1511 33.2465C26.9911 33.2065 27.8791 33.1345 28.3991 33.0465L28.3351 32.4225C28.0391 32.4545 27.6871 32.4945 27.3031 32.5185L27.4551 31.1345L26.6631 31.0545L26.5751 32.5665C26.2631 32.5825 25.9591 32.5825 25.6471 32.5905L25.5431 31.0625ZM29.7671 33.3505V29.6705H28.9511V33.3505H29.7671ZM28.1031 30.7345V30.0785H24.1671V30.7345H28.1031Z" fill="#6C6D6C"/>
<circle cx="20" cy="16" r="10.3739" stroke="#67676B" stroke-width="1.25229"/>
<circle cx="20" cy="13" r="3.58257" stroke="#67676B" stroke-width="0.834862"/>
<path fill-rule="evenodd" clip-rule="evenodd" d="M12.1274 22.9033C13.6995 20.0411 16.7424 18.1011 20.2385 18.1011C23.7347 18.1011 26.7778 20.0413 28.3497 22.9037C28.156 23.1244 27.9533 23.3371 27.7424 23.5413C26.353 20.8083 23.5144 18.9359 20.2385 18.9359C16.9627 18.9359 14.1242 20.8082 12.7347 23.541C12.5238 23.3368 12.3212 23.124 12.1274 22.9033Z" fill="#67676B"/>
</g>
<defs>
<clipPath id="clip0_323_469">
<rect width="40" height="40" fill="white" transform="translate(0.202148)"/>
</clipPath>
</defs>
</svg>
