<svg width="41" height="41" viewBox="0 0 41 41" fill="none" xmlns="http://www.w3.org/2000/svg">
<g clip-path="url(#clip0_323_482)">
<rect width="40" height="40" transform="translate(0.403809 0.926758)" fill="white"/>
<path d="M24.1976 23.8852C24.1976 26.2289 22.479 28.0595 20.4407 28.0595C18.4023 28.0595 16.6838 26.2289 16.6838 23.8852C16.6838 21.5415 18.4023 19.7109 20.4407 19.7109C22.479 19.7109 24.1976 21.5415 24.1976 23.8852Z" fill="#1975F5" stroke="#1975F5" stroke-width="0.834862"/>
<path fill-rule="evenodd" clip-rule="evenodd" d="M24.8739 8.82275C26.0591 10.1428 26.7249 11.9336 26.7249 13.8003C26.7249 22.014 29.8854 24.3603 29.8854 24.3603H10.9221C10.9221 24.3603 14.0827 22.014 14.0827 13.8003C14.0827 11.9336 14.7485 10.1428 15.9337 8.82275C17.12 7.50165 18.7276 6.76025 20.4038 6.76025C22.0789 6.76025 23.6876 7.50275 24.8739 8.82275Z" fill="#1975F5"/>
<path d="M24.8739 8.82275L25.3333 8.41025L25.3331 8.41004L24.8739 8.82275ZM29.8854 24.3603V24.9777C30.1518 24.9777 30.3881 24.8069 30.4717 24.5541C30.5553 24.3012 30.4673 24.0232 30.2535 23.8645L29.8854 24.3603ZM10.9221 24.3603L10.5541 23.8645C10.3402 24.0232 10.2523 24.3012 10.3359 24.5541C10.4195 24.8069 10.6558 24.9777 10.9221 24.9777V24.3603ZM15.9337 8.82275L15.4743 8.41023L15.4743 8.41025L15.9337 8.82275ZM27.3423 13.8003C27.3423 11.79 26.6259 9.84991 25.3333 8.41025L24.4144 9.23526C25.4922 10.4356 26.1074 12.0771 26.1074 13.8003H27.3423ZM29.8854 24.3603C30.2535 23.8645 30.2539 23.8648 30.2542 23.8651C30.2544 23.8652 30.2547 23.8654 30.255 23.8656C30.2554 23.8659 30.2558 23.8662 30.2561 23.8665C30.2568 23.867 30.2574 23.8674 30.2577 23.8676C30.2583 23.8681 30.2582 23.8681 30.2574 23.8674C30.2558 23.8661 30.2512 23.8626 30.244 23.8566C30.2295 23.8446 30.2042 23.8229 30.1696 23.7908C30.1004 23.7266 29.9938 23.6203 29.8619 23.4652C29.5983 23.1554 29.2317 22.6484 28.8597 21.8888C28.1165 20.3714 27.3423 17.8265 27.3423 13.8003H26.1074C26.1074 17.9877 26.9136 20.7228 27.7507 22.432C28.1688 23.2856 28.5923 23.8786 28.9213 24.2654C29.0857 24.4586 29.226 24.5998 29.3296 24.696C29.3814 24.7441 29.4241 24.7809 29.4559 24.8072C29.4718 24.8204 29.485 24.831 29.4953 24.8391C29.5005 24.8432 29.5049 24.8466 29.5086 24.8494C29.5105 24.8508 29.5121 24.8521 29.5136 24.8532C29.5143 24.8537 29.515 24.8542 29.5156 24.8547C29.516 24.8549 29.5164 24.8553 29.5166 24.8554C29.517 24.8557 29.5174 24.856 29.8854 24.3603ZM10.9221 24.9777H29.8854V23.7428H10.9221V24.9777ZM13.4652 13.8003C13.4652 17.8265 12.6911 20.3714 11.9479 21.8888C11.5758 22.6484 11.2093 23.1554 10.9457 23.4652C10.8137 23.6203 10.7071 23.7266 10.6379 23.7908C10.6033 23.8229 10.578 23.8446 10.5636 23.8566C10.5563 23.8626 10.5518 23.8661 10.5501 23.8674C10.5493 23.8681 10.5492 23.8681 10.5499 23.8676C10.5502 23.8674 10.5507 23.867 10.5514 23.8665C10.5518 23.8662 10.5522 23.8659 10.5526 23.8656C10.5528 23.8654 10.5532 23.8652 10.5533 23.8651C10.5537 23.8648 10.5541 23.8645 10.9221 24.3603C11.2902 24.856 11.2906 24.8557 11.291 24.8554C11.2912 24.8553 11.2916 24.8549 11.2919 24.8547C11.2926 24.8542 11.2932 24.8537 11.294 24.8532C11.2954 24.8521 11.2971 24.8508 11.2989 24.8494C11.3026 24.8466 11.3071 24.8432 11.3122 24.8391C11.3225 24.831 11.3358 24.8204 11.3517 24.8072C11.3835 24.7809 11.4261 24.7441 11.4779 24.696C11.5816 24.5998 11.7219 24.4586 11.8862 24.2654C12.2152 23.8786 12.6388 23.2856 13.0569 22.432C13.894 20.7228 14.7001 17.9877 14.7001 13.8003H13.4652ZM15.4743 8.41025C14.1816 9.84991 13.4652 11.79 13.4652 13.8003H14.7001C14.7001 12.0771 15.3154 10.4356 16.3931 9.23526L15.4743 8.41025ZM20.4038 6.14282C18.5411 6.14282 16.7699 6.96734 15.4743 8.41023L16.3931 9.23527C17.47 8.03597 18.9142 7.37769 20.4038 7.37769V6.14282ZM25.3331 8.41004C24.0377 6.96856 22.2656 6.14282 20.4038 6.14282V7.37769C21.8922 7.37769 23.3375 8.03695 24.4146 9.23546L25.3331 8.41004Z" fill="#1975F5"/>
<path d="M17.4339 32.392C17.4339 31.424 16.6419 30.76 15.6019 30.76C14.5699 30.76 13.7939 31.44 13.7939 32.392C13.7939 33.36 14.6099 33.96 15.6019 33.96C16.6419 33.96 17.4339 33.336 17.4339 32.392ZM16.6179 32.384C16.6179 32.872 16.2179 33.28 15.6019 33.28C15.0259 33.28 14.5939 32.904 14.5939 32.384C14.5939 31.856 15.0499 31.44 15.6019 31.44C16.2259 31.44 16.6179 31.848 16.6179 32.384ZM19.4899 37.552V36.888H15.4899V36.32H19.2579V34.512H14.6579V35.168H18.4339V35.712H14.6739V37.552H19.4899ZM20.2979 32.672V32H19.2579V30.504H18.4339V34.088H19.2579V32.672H20.2979ZM27.2198 32.984V32.304H26.1798V30.504H25.3558V34.696H26.1798V32.984H27.2198ZM26.1798 37.536V35.08H21.5958V37.536H26.1798ZM25.3558 36.888H22.4118V35.72H25.3558V36.888ZM24.6518 33.544C23.6838 33.768 22.6678 33.776 21.7238 33.776V32.912H24.0518V30.872H20.8758V31.536H23.2278V32.28H20.9078V34.432H21.8118C22.8518 34.432 24.0438 34.344 24.7558 34.184L24.6518 33.544Z" fill="#1975F5"/>
<line x1="14" y1="25.5" x2="26" y2="25.5" stroke="white"/>
</g>
<defs>
<clipPath id="clip0_323_482">
<rect width="40" height="40" fill="white" transform="translate(0.403809 0.926758)"/>
</clipPath>
</defs>
</svg>
