<svg width="41" height="41" viewBox="0 0 41 41" fill="none" xmlns="http://www.w3.org/2000/svg">
<g clip-path="url(#clip0_325_1279)">
<rect width="40" height="40" transform="translate(0.955078 0.926758)" fill="white"/>
<rect x="2" y="40" width="38" height="2" rx="1" fill="#1975F5"/>
<circle cx="21" cy="19.9268" r="11" fill="#1975F5"/>
<path d="M19.1685 14.5043C18.8985 15.6856 19.6807 17.6974 21.003 17.6974C22.316 17.6974 23.0982 15.6856 22.8281 14.5043C22.6233 13.5999 21.8224 13 21.003 13C20.1742 13 19.3827 13.5999 19.1685 14.5043ZM15.3227 15.3349C15.0899 16.3316 15.7603 18.0389 16.8778 18.0389C17.9952 18.0389 18.6657 16.3316 18.4329 15.3349C18.2559 14.5689 17.5762 14.0521 16.8778 14.0521C16.1794 14.0521 15.4996 14.5689 15.3227 15.3349ZM23.5731 15.3349C23.3403 16.3316 24.0107 18.0389 25.1189 18.0389C26.2363 18.0389 26.9068 16.3316 26.674 15.3349C26.497 14.5689 25.8173 14.0521 25.1189 14.0521C24.4298 14.0521 23.75 14.5689 23.5731 15.3349ZM23.0237 25.8833L24.1877 21.915C24.914 19.617 23.5265 18.205 21.003 18.205C18.4701 18.205 17.0826 19.617 17.7997 21.915L18.973 25.8833C19.1871 26.5478 20.0718 27 21.003 27C21.9156 27 22.8095 26.5478 23.0237 25.8833ZM17.3434 18.8418C16.8871 19.4601 16.4494 20.5307 16.9523 22.1549L17.9952 25.6526C17.6786 25.8372 17.2782 25.9387 16.8778 25.9387C16.0863 25.9387 15.3413 25.5603 15.1551 24.9881L14.1587 21.6196C13.5534 19.6724 14.7267 18.4819 16.8778 18.4819C17.1292 18.4819 17.3806 18.5003 17.6134 18.5372C17.5203 18.6295 17.4272 18.7403 17.3434 18.8418ZM25.1189 18.4819C27.2699 18.4819 28.4526 19.6724 27.838 21.6196L26.8416 24.9881C26.6553 25.5603 25.9104 25.9387 25.1189 25.9387C24.7185 25.9387 24.318 25.8372 24.0014 25.6526L25.0351 22.1734C25.5472 20.5307 25.1096 19.4601 24.644 18.8418C24.5695 18.7403 24.4763 18.6295 24.3832 18.5372C24.616 18.5003 24.8581 18.4819 25.1189 18.4819Z" fill="white"/>
</g>
<defs>
<clipPath id="clip0_325_1279">
<rect width="40" height="40" fill="white" transform="translate(0.955078 0.926758)"/>
</clipPath>
</defs>
</svg>
