<svg width="41" height="40" viewBox="0 0 41 40" fill="none" xmlns="http://www.w3.org/2000/svg">
<g clip-path="url(#clip0_323_471)">
<rect width="40" height="40" transform="translate(0.403809)" fill="white"/>
<path d="M24.1976 22.9589C24.1976 25.3027 22.479 27.1332 20.4407 27.1332C18.4023 27.1332 16.6838 25.3027 16.6838 22.9589C16.6838 20.6152 18.4023 18.7846 20.4407 18.7846C22.479 18.7846 24.1976 20.6152 24.1976 22.9589Z" stroke="#67676B" stroke-width="0.834862"/>
<path fill-rule="evenodd" clip-rule="evenodd" d="M24.9368 7.88178C26.1388 9.193 26.814 10.9719 26.814 12.8262C26.814 20.9852 30.0191 23.3159 30.0191 23.3159H10.7883C10.7883 23.3159 13.9935 20.9852 13.9935 12.8262C13.9935 10.9719 14.6687 9.193 15.8706 7.88178C17.0736 6.56947 18.7039 5.83301 20.4037 5.83301C22.1024 5.83301 23.7338 6.57057 24.9368 7.88178Z" fill="white"/>
<path d="M24.9368 7.88178L25.3984 7.45869L25.3982 7.45848L24.9368 7.88178ZM30.0191 23.3159V23.942C30.2903 23.942 30.5307 23.7674 30.6146 23.5095C30.6984 23.2516 30.6067 22.969 30.3874 22.8095L30.0191 23.3159ZM10.7883 23.3159L10.4201 22.8095C10.2007 22.969 10.109 23.2516 10.1929 23.5095C10.2767 23.7674 10.5171 23.942 10.7883 23.942V23.3159ZM15.8706 7.88178L15.409 7.45867L15.409 7.45869L15.8706 7.88178ZM27.4401 12.8262C27.4401 10.8226 26.7111 8.8907 25.3984 7.45869L24.4753 8.30488C25.5665 9.4953 26.1878 11.1212 26.1878 12.8262H27.4401ZM30.0191 23.3159C30.3874 22.8095 30.3877 22.8098 30.3881 22.8101C30.3883 22.8101 30.3886 22.8104 30.3889 22.8106C30.3893 22.8109 30.3897 22.8112 30.3901 22.8115C30.3908 22.812 30.3913 22.8124 30.3916 22.8126C30.3923 22.8131 30.3922 22.8131 30.3914 22.8124C30.3897 22.8112 30.3851 22.8076 30.3778 22.8017C30.3632 22.7898 30.3376 22.7683 30.3025 22.7365C30.2325 22.6728 30.1246 22.5675 29.991 22.4137C29.7242 22.1064 29.3532 21.6038 28.9766 20.8506C28.2244 19.3464 27.4401 16.822 27.4401 12.8262H26.1878C26.1878 16.9894 27.0061 19.7099 27.8565 21.4107C28.2812 22.2601 28.7114 22.8501 29.0455 23.2348C29.2125 23.427 29.355 23.5675 29.4602 23.6631C29.5128 23.711 29.5561 23.7476 29.5884 23.7738C29.6046 23.7869 29.618 23.7975 29.6284 23.8055C29.6337 23.8095 29.6382 23.8129 29.6419 23.8157C29.6438 23.8171 29.6455 23.8184 29.647 23.8195C29.6477 23.82 29.6484 23.8205 29.6491 23.821C29.6494 23.8212 29.6498 23.8216 29.65 23.8217C29.6504 23.822 29.6509 23.8223 30.0191 23.3159ZM10.7883 23.942H30.0191V22.6897H10.7883V23.942ZM13.3673 12.8262C13.3673 16.822 12.583 19.3464 11.8309 20.8506C11.4543 21.6038 11.0832 22.1064 10.8164 22.4137C10.6828 22.5675 10.5749 22.6728 10.5049 22.7365C10.4698 22.7683 10.4443 22.7898 10.4296 22.8017C10.4223 22.8076 10.4177 22.8112 10.4161 22.8124C10.4152 22.8131 10.4151 22.8131 10.4158 22.8126C10.4161 22.8124 10.4167 22.812 10.4174 22.8115C10.4177 22.8112 10.4181 22.8109 10.4186 22.8106C10.4188 22.8104 10.4192 22.8101 10.4193 22.8101C10.4197 22.8098 10.4201 22.8095 10.7883 23.3159C11.1566 23.8223 11.157 23.822 11.1574 23.8217C11.1576 23.8216 11.1581 23.8212 11.1584 23.821C11.159 23.8205 11.1597 23.82 11.1605 23.8195C11.1619 23.8184 11.1636 23.8171 11.1655 23.8157C11.1692 23.8129 11.1737 23.8095 11.179 23.8055C11.1895 23.7975 11.2029 23.7869 11.219 23.7738C11.2513 23.7476 11.2946 23.711 11.3472 23.6631C11.4525 23.5675 11.595 23.427 11.7619 23.2348C12.096 22.8501 12.5263 22.2601 12.9509 21.4107C13.8014 19.7099 14.6196 16.9894 14.6196 12.8262H13.3673ZM15.409 7.45869C14.0964 8.8907 13.3673 10.8226 13.3673 12.8262H14.6196C14.6196 11.1212 15.241 9.4953 16.3322 8.30488L15.409 7.45869ZM20.4037 5.20686C18.5194 5.20686 16.7244 6.0238 15.409 7.45867L16.3322 8.30489C17.4228 7.11515 18.8885 6.45915 20.4037 6.45915V5.20686ZM25.3982 7.45848C24.0831 6.02501 22.2871 5.20686 20.4037 5.20686V6.45915C21.9177 6.45915 23.3846 7.11612 24.4755 8.30509L25.3982 7.45848Z" fill="#66656B"/>
<path d="M17.4339 31.5585C17.4339 30.5905 16.6419 29.9265 15.6019 29.9265C14.5699 29.9265 13.7939 30.6065 13.7939 31.5585C13.7939 32.5265 14.6099 33.1265 15.6019 33.1265C16.6419 33.1265 17.4339 32.5025 17.4339 31.5585ZM16.6179 31.5505C16.6179 32.0385 16.2179 32.4465 15.6019 32.4465C15.0259 32.4465 14.5939 32.0705 14.5939 31.5505C14.5939 31.0225 15.0499 30.6065 15.6019 30.6065C16.2259 30.6065 16.6179 31.0145 16.6179 31.5505ZM19.4899 36.7185V36.0545H15.4899V35.4865H19.2579V33.6785H14.6579V34.3345H18.4339V34.8785H14.6739V36.7185H19.4899ZM20.2979 31.8385V31.1665H19.2579V29.6705H18.4339V33.2545H19.2579V31.8385H20.2979ZM27.2198 32.1505V31.4705H26.1798V29.6705H25.3558V33.8625H26.1798V32.1505H27.2198ZM26.1798 36.7025V34.2465H21.5958V36.7025H26.1798ZM25.3558 36.0545H22.4118V34.8865H25.3558V36.0545ZM24.6518 32.7105C23.6838 32.9345 22.6678 32.9425 21.7238 32.9425V32.0785H24.0518V30.0385H20.8758V30.7025H23.2278V31.4465H20.9078V33.5985H21.8118C22.8518 33.5985 24.0438 33.5105 24.7558 33.3505L24.6518 32.7105Z" fill="#6C6D6C"/>
<rect x="21" y="2" width="19" height="12.6667" rx="6.33333" fill="#E61F3E"/>
<path d="M26.5428 11.2478H27.4691V9.38496H29.2598V8.52046H27.4691V6.65767H26.5428V8.52046H24.7521V9.38496H26.5428V11.2478ZM32.7765 5.27859C31.2739 5.27859 30.4711 6.3798 30.4711 7.71771C30.4711 9.05563 31.3871 9.88925 32.5706 9.88925C33.3219 9.88925 33.8777 9.5805 34.2482 9.21C34.1761 11.0625 33.4969 11.608 32.4368 11.608C31.9017 11.608 31.3048 11.433 31.0063 11.258L30.7902 12.0505C31.1092 12.2563 31.7782 12.4828 32.4883 12.4828C34.1761 12.4828 35.3185 11.4021 35.3185 8.81892V8.3455C35.3185 6.3798 34.4128 5.27859 32.7765 5.27859ZM32.797 6.11221C33.8159 6.11221 34.2482 6.90467 34.2482 8.12938V8.31463C33.9806 8.66455 33.4351 9.07621 32.8485 9.07621C32.0869 9.07621 31.5106 8.63367 31.5106 7.62509C31.5106 6.72971 31.984 6.11221 32.797 6.11221Z" fill="#FFF2F5"/>
</g>
<defs>
<clipPath id="clip0_323_471">
<rect width="40" height="40" fill="white" transform="translate(0.403809)"/>
</clipPath>
</defs>
</svg>
