<svg width="41" height="40" viewBox="0 0 41 40" fill="none" xmlns="http://www.w3.org/2000/svg">
<g clip-path="url(#clip0_323_473)">
<rect width="40" height="40" transform="translate(0.605957)" fill="white"/>
<circle cx="19.8075" cy="14.1928" r="8.34862" stroke="#67676B" stroke-width="1.66972"/>
<path d="M26.9336 18.4956L31.8736 23.4356C32.5257 24.0877 32.5257 25.1449 31.8736 25.7969L31.2832 26.3873C30.6312 27.0393 29.574 27.0393 28.9219 26.3873L23.9819 21.4473L26.9336 18.4956Z" fill="#67676B"/>
<path d="M19.7958 33.6625V29.6705H18.9718V31.4625H17.5638V32.1425H18.9718V33.6625H19.7958ZM17.5558 30.1185H14.2998V30.8065H16.6438C16.4118 32.0305 15.3078 32.8305 13.9718 33.1745L14.4118 33.8385C16.3478 33.1825 17.4598 32.0785 17.5558 30.1185ZM19.8038 36.7105V34.0305H15.1478V36.7105H19.8038ZM18.9798 36.0545H15.9798V34.6785H18.9798V36.0545ZM26.8537 33.8705V29.6705H26.0697V31.4065H25.3817V29.7985H24.6057V33.7825H25.3817V32.0865H26.0697V33.8705H26.8537ZM22.0057 34.2145V34.8705H26.0377V36.8065H26.8537V34.2145H22.0057ZM24.4297 32.8945C23.7657 32.5745 23.0457 31.8705 23.0457 30.8465V30.1185H22.2537V30.8705C22.2537 31.9025 21.6297 32.6945 20.8057 33.1505L21.2777 33.7265C21.9017 33.4065 22.4777 32.7585 22.6697 32.1985C22.8617 32.6865 23.5337 33.2785 24.0137 33.5025L24.4297 32.8945Z" fill="#6C6D6C"/>
</g>
<defs>
<clipPath id="clip0_323_473">
<rect width="40" height="40" fill="white" transform="translate(0.605957)"/>
</clipPath>
</defs>
</svg>
