<svg width="41" height="41" viewBox="0 0 41 41" fill="none" xmlns="http://www.w3.org/2000/svg">
<g clip-path="url(#clip0_323_480)">
<rect width="40" height="40" transform="translate(0.202148 0.926758)" fill="white"/>
<path d="M15.8673 34.64V33.976H14.7873L15.0833 32.264L14.2833 32.152L14.0193 33.976H12.5313L12.3873 32.144L11.5713 32.224L11.7633 33.976H10.6593V34.64H15.8673ZM16.4993 36.68V36.032H10.0593V36.68H16.4993ZM15.8753 31.744V31.088H10.6513V31.744H15.8753ZM22.7972 34.88V34.216H18.6292V33.24H22.5892V31H17.7812V31.656H21.7732V32.576H17.8052V34.88H19.7812V36.072H16.9812V36.728H23.4212V36.072H20.5972V34.88H22.7972ZM30.0071 37.576V36.928H25.9591V36.368H29.7671V34.552H25.1031V35.208H28.9511V35.76H25.1351V37.576H30.0071ZM25.5431 31.896L24.7431 31.968L24.9111 33.44C24.5671 33.448 24.2311 33.456 23.9351 33.456L24.0471 34.144C24.7031 34.144 25.4551 34.12 26.1511 34.08C26.9911 34.04 27.8791 33.968 28.3991 33.88L28.3351 33.256C28.0391 33.288 27.6871 33.328 27.3031 33.352L27.4551 31.968L26.6631 31.888L26.5751 33.4C26.2631 33.416 25.9591 33.416 25.6471 33.424L25.5431 31.896ZM29.7671 34.184V30.504H28.9511V34.184H29.7671ZM28.1031 31.568V30.912H24.1671V31.568H28.1031Z" fill="#1975F5"/>
<circle cx="20" cy="14" r="3.58257" fill="#1975F5" stroke="#1975F5" stroke-width="0.834862"/>
<path fill-rule="evenodd" clip-rule="evenodd" d="M20.2385 19.1011C23.3231 19.1011 26.055 20.6113 27.735 22.9327C28.9973 21.2894 29.7477 19.2323 29.7477 17C29.7477 11.6165 25.3835 7.25229 20 7.25229C14.6165 7.25229 10.2523 11.6165 10.2523 17C10.2523 19.3793 11.1048 21.5596 12.521 23.2519C14.1761 20.7507 17.0147 19.1011 20.2385 19.1011ZM20 28C26.0751 28 31 23.0751 31 17C31 10.9249 26.0751 6 20 6C13.9249 6 9 10.9249 9 17C9 23.0751 13.9249 28 20 28Z" fill="#1975F5"/>
</g>
<defs>
<clipPath id="clip0_323_480">
<rect width="40" height="40" fill="white" transform="translate(0.202148 0.926758)"/>
</clipPath>
</defs>
</svg>
