<svg width="41" height="40" viewBox="0 0 41 40" fill="none" xmlns="http://www.w3.org/2000/svg">
<g clip-path="url(#clip0_323_468)">
<rect width="40" height="40" transform="translate(0.101074)" fill="white"/>
<rect x="9.07585" y="7.30486" width="22.1239" height="15.445" rx="2.7133" stroke="#67676B" stroke-width="1.25229"/>
<path d="M24.618 14.2927C25.2031 14.608 25.2031 15.4473 24.618 15.7626L17.8206 19.4254C17.2644 19.7252 16.5897 19.3223 16.5897 18.6905L16.5897 11.3648C16.5897 10.7329 17.2644 10.3301 17.8206 10.6298L24.618 14.2927Z" fill="#67676B"/>
<rect x="14.2937" y="25.0459" width="11.6881" height="1.66972" rx="0.417431" fill="#67676B"/>
<path d="M10.9068 35.8305H11.7068L12.8748 31.6785H12.8988L14.0348 35.8305H14.8348L16.1948 30.3505H15.4428L14.4428 34.5825H14.4268L13.2588 30.3505H12.5708L11.3788 34.5825H11.3548L10.3708 30.3505H9.53079L10.9068 35.8305ZM17.6724 35.9025C18.2004 35.9025 18.5364 35.7265 18.7284 35.4865H18.7764L18.8484 35.8305H19.4964V32.8785C19.4964 32.0545 18.9604 31.6705 18.0404 31.6705C17.5364 31.6705 17.1204 31.7505 16.7444 31.9025V32.4545C16.9924 32.3985 17.3284 32.3345 17.7284 32.3345C18.4484 32.3345 18.7044 32.4705 18.7044 33.0785V33.4305L17.6804 33.5505C16.8884 33.6545 16.4084 34.0145 16.4084 34.7425C16.4084 35.5345 16.9364 35.9025 17.6724 35.9025ZM17.8804 35.3265C17.4724 35.3265 17.2084 35.1265 17.2084 34.7105C17.2084 34.2865 17.4244 34.1105 17.8564 34.0625L18.7044 33.9745V35.0625C18.5444 35.2145 18.2164 35.3265 17.8804 35.3265ZM21.8756 35.8705C22.2516 35.8705 22.4356 35.7905 22.6036 35.7185V35.1905C22.4436 35.2145 22.2676 35.2385 22.0996 35.2385C21.6596 35.2385 21.5396 35.1025 21.5396 34.7345V32.3825H22.5236V31.7505H21.5396V30.7905H20.7476V31.7505H20.1716V32.3825H20.7476V34.8465C20.7476 35.5905 21.1956 35.8705 21.8756 35.8705ZM25.0472 35.9025C25.6152 35.9025 25.9912 35.7585 26.2632 35.5825V34.9825C26.0472 35.0865 25.6872 35.2545 25.1672 35.2545C24.3672 35.2545 23.9512 34.8385 23.9512 33.8545V33.6465C23.9512 32.7905 24.3912 32.3345 25.0872 32.3345C25.6072 32.3345 25.8552 32.4305 26.2152 32.5825V31.9345C25.9432 31.7745 25.6312 31.6705 25.0952 31.6705C23.9912 31.6705 23.1352 32.3265 23.1352 33.7505V33.8865C23.1352 35.2385 23.8792 35.9025 25.0472 35.9025ZM27.0002 35.8305H27.7842V32.5985C28.0642 32.4625 28.4562 32.3425 28.8002 32.3425C29.4162 32.3425 29.5442 32.5265 29.5442 32.9745V35.8305H30.3362V32.7905C30.3362 31.9985 29.9522 31.6705 29.1602 31.6705C28.6642 31.6705 28.1602 31.8545 27.8242 32.0865H27.7842V29.9905H27.0002V35.8305Z" fill="#6C6D6C"/>
</g>
<defs>
<clipPath id="clip0_323_468">
<rect width="40" height="40" fill="white" transform="translate(0.101074)"/>
</clipPath>
</defs>
</svg>
