<svg width="40" height="41" viewBox="0 0 40 41" fill="none" xmlns="http://www.w3.org/2000/svg">
<g clip-path="url(#clip0_325_1271)">
<rect width="40" height="40" transform="translate(0 0.926758)" fill="white"/>
<path fill-rule="evenodd" clip-rule="evenodd" d="M19.6682 9.1715C19.9919 8.8582 20.5058 8.8582 20.8295 9.1715L31.0578 19.0715C31.5969 19.5934 31.2275 20.5063 30.4771 20.5063H28.3857V29.4806C28.3857 30.4028 27.6382 31.1503 26.716 31.1503H24.2114C23.2893 31.1503 22.5417 30.4028 22.5417 29.4806V23.6366H17.5325V29.4806C17.5325 30.4028 16.785 31.1503 15.8628 31.1503H13.3582C12.436 31.1503 11.6885 30.4028 11.6885 29.4806V20.5063H10.0206C9.27026 20.5063 8.90082 19.5934 9.43999 19.0715L19.6682 9.1715Z" fill="#1975F5"/>
<rect x="1" y="40" width="38" height="2" rx="1" fill="#1975F5"/>
</g>
<defs>
<clipPath id="clip0_325_1271">
<rect width="40" height="40" fill="white" transform="translate(0 0.926758)"/>
</clipPath>
</defs>
</svg>
