<svg width="41" height="41" viewBox="0 0 41 41" fill="none" xmlns="http://www.w3.org/2000/svg">
<g clip-path="url(#clip0_323_486)">
<rect width="40" height="40" transform="translate(0.955078 0.926758)" fill="white"/>
<path d="M20.7134 36.592V35.928H14.2734V36.592H20.7134ZM19.8734 31.272H15.0174V31.92H19.0494C19.0494 33.072 18.9294 34.616 18.7534 35.328L19.5614 35.432C19.7534 34.496 19.8734 33.16 19.8734 31.272ZM26.7953 37.544V35.08H25.9793V35.736H22.8433V35.096H22.0193V37.544H26.7953ZM26.9553 33.472V32.84H22.8673V32.352H26.7713V30.664H22.0273V31.288H25.9473V31.76H22.0433V33.472H26.9553ZM24.8113 35.448V34.616H27.6353V33.96H21.1953V34.616H23.9953V35.448H24.8113ZM25.9793 36.888H22.8433V36.376H25.9793V36.888Z" fill="#1975F5"/>
<circle cx="21" cy="17.9268" r="11" fill="#1975F5"/>
<path d="M19.1685 12.5043C18.8985 13.6856 19.6807 15.6974 21.003 15.6974C22.316 15.6974 23.0982 13.6856 22.8281 12.5043C22.6233 11.5999 21.8224 11 21.003 11C20.1742 11 19.3827 11.5999 19.1685 12.5043ZM15.3227 13.3349C15.0899 14.3316 15.7603 16.0389 16.8778 16.0389C17.9952 16.0389 18.6657 14.3316 18.4329 13.3349C18.2559 12.5689 17.5762 12.0521 16.8778 12.0521C16.1794 12.0521 15.4996 12.5689 15.3227 13.3349ZM23.5731 13.3349C23.3403 14.3316 24.0107 16.0389 25.1189 16.0389C26.2363 16.0389 26.9068 14.3316 26.674 13.3349C26.497 12.5689 25.8173 12.0521 25.1189 12.0521C24.4298 12.0521 23.75 12.5689 23.5731 13.3349ZM23.0237 23.8833L24.1877 19.915C24.914 17.617 23.5265 16.205 21.003 16.205C18.4701 16.205 17.0826 17.617 17.7997 19.915L18.973 23.8833C19.1871 24.5478 20.0718 25 21.003 25C21.9156 25 22.8095 24.5478 23.0237 23.8833ZM17.3434 16.8418C16.8871 17.4601 16.4494 18.5307 16.9523 20.1549L17.9952 23.6526C17.6786 23.8372 17.2782 23.9387 16.8778 23.9387C16.0863 23.9387 15.3413 23.5603 15.1551 22.9881L14.1587 19.6196C13.5534 17.6724 14.7267 16.4819 16.8778 16.4819C17.1292 16.4819 17.3806 16.5003 17.6134 16.5372C17.5203 16.6295 17.4272 16.7403 17.3434 16.8418ZM25.1189 16.4819C27.2699 16.4819 28.4526 17.6724 27.838 19.6196L26.8416 22.9881C26.6553 23.5603 25.9104 23.9387 25.1189 23.9387C24.7185 23.9387 24.318 23.8372 24.0014 23.6526L25.0351 20.1734C25.5472 18.5307 25.1096 17.4601 24.644 16.8418C24.5695 16.7403 24.4763 16.6295 24.3832 16.5372C24.616 16.5003 24.8581 16.4819 25.1189 16.4819Z" fill="white"/>
</g>
<defs>
<clipPath id="clip0_323_486">
<rect width="40" height="40" fill="white" transform="translate(0.955078 0.926758)"/>
</clipPath>
</defs>
</svg>
