<svg width="40" height="40" viewBox="0 0 40 40" fill="none" xmlns="http://www.w3.org/2000/svg">
<g clip-path="url(#clip0_323_476)">
<rect width="40" height="40" fill="white"/>
<path fill-rule="evenodd" clip-rule="evenodd" d="M19.2976 5.84326H16.6459C16.0153 5.84326 15.4052 5.93064 14.8269 6.09396L18.7168 11.6873H23.3619L19.2976 5.84326ZM25.3957 11.6873H29.1172C28.7063 8.39267 25.8959 5.84326 22.4899 5.84326H21.3314L25.3957 11.6873ZM10.0187 11.6873C10.2804 9.58832 11.5161 7.79182 13.2593 6.76432L16.683 11.6873H10.0187Z" fill="#67676B"/>
<path fill-rule="evenodd" clip-rule="evenodd" d="M29.2206 13.3574H10.0188V19.2015C10.0188 22.8901 13.009 25.8804 16.6977 25.8804H22.5417C26.2304 25.8804 29.2206 22.8901 29.2206 19.2015V13.3574ZM22.2546 19.0733C22.7746 18.7459 22.7746 17.9879 22.2546 17.6605L17.7684 14.8349C17.2125 14.4847 16.4886 14.8843 16.4886 15.5413L16.4886 21.1925C16.4886 21.8495 17.2125 22.2491 17.7684 21.8989L22.2546 19.0733Z" fill="#67676B"/>
<path d="M19.182 33.3345V29.6705H18.366V33.3345H19.182ZM19.422 36.7425V36.0945H15.374V35.5265H19.182V33.7105H14.518V34.3665H18.366V34.9185H14.55V36.7425H19.422ZM17.486 32.2865C16.862 32.4465 15.374 32.5105 14.502 32.5105V31.8065H16.87V29.9585H13.638V30.6065H16.046V31.1905H13.678V33.1665H14.582C15.614 33.1585 16.886 33.0865 17.598 32.9265L17.486 32.2865ZM26.6799 35.8545V35.1985H20.2399V35.8545H26.6799ZM26.5119 32.9905C25.4399 32.7985 23.8959 31.7985 23.8959 30.5745V30.1025H23.0399V30.5745C23.0399 31.8065 21.5839 32.7745 20.4239 32.9585L20.8239 33.6305C21.9039 33.3665 23.1279 32.5585 23.4559 31.6785C23.8239 32.5425 25.0319 33.3505 26.0799 33.6305L26.5119 32.9905Z" fill="#6C6D6C"/>
</g>
<defs>
<clipPath id="clip0_323_476">
<rect width="40" height="40" fill="white"/>
</clipPath>
</defs>
</svg>
