<svg width="41" height="41" viewBox="0 0 41 41" fill="none" xmlns="http://www.w3.org/2000/svg">
<g clip-path="url(#clip0_323_479)">
<rect width="40" height="40" transform="translate(0.101074 0.926758)" fill="white"/>
<rect x="9.07585" y="8.23162" width="22.1239" height="15.445" rx="2.7133" fill="#1975F5" stroke="#1975F5" stroke-width="1.25229"/>
<path d="M24.618 15.219C25.2031 15.5342 25.2031 16.3736 24.618 16.6888L17.8206 20.3517C17.2644 20.6514 16.5897 20.2486 16.5897 19.6168L16.5897 12.291C16.5897 11.6592 17.2644 11.2564 17.8206 11.5561L24.618 15.219Z" fill="white"/>
<rect x="14.2937" y="25.9727" width="11.6881" height="1.66972" rx="0.417431" fill="#1975F5"/>
<path d="M10.9068 36.664H11.7068L12.8748 32.512H12.8988L14.0348 36.664H14.8348L16.1948 31.184H15.4428L14.4428 35.416H14.4268L13.2588 31.184H12.5708L11.3788 35.416H11.3548L10.3708 31.184H9.53079L10.9068 36.664ZM17.6724 36.736C18.2004 36.736 18.5364 36.56 18.7284 36.32H18.7764L18.8484 36.664H19.4964V33.712C19.4964 32.888 18.9604 32.504 18.0404 32.504C17.5364 32.504 17.1204 32.584 16.7444 32.736V33.288C16.9924 33.232 17.3284 33.168 17.7284 33.168C18.4484 33.168 18.7044 33.304 18.7044 33.912V34.264L17.6804 34.384C16.8884 34.488 16.4084 34.848 16.4084 35.576C16.4084 36.368 16.9364 36.736 17.6724 36.736ZM17.8804 36.16C17.4724 36.16 17.2084 35.96 17.2084 35.544C17.2084 35.12 17.4244 34.944 17.8564 34.896L18.7044 34.808V35.896C18.5444 36.048 18.2164 36.16 17.8804 36.16ZM21.8756 36.704C22.2516 36.704 22.4356 36.624 22.6036 36.552V36.024C22.4436 36.048 22.2676 36.072 22.0996 36.072C21.6596 36.072 21.5396 35.936 21.5396 35.568V33.216H22.5236V32.584H21.5396V31.624H20.7476V32.584H20.1716V33.216H20.7476V35.68C20.7476 36.424 21.1956 36.704 21.8756 36.704ZM25.0472 36.736C25.6152 36.736 25.9912 36.592 26.2632 36.416V35.816C26.0472 35.92 25.6872 36.088 25.1672 36.088C24.3672 36.088 23.9512 35.672 23.9512 34.688V34.48C23.9512 33.624 24.3912 33.168 25.0872 33.168C25.6072 33.168 25.8552 33.264 26.2152 33.416V32.768C25.9432 32.608 25.6312 32.504 25.0952 32.504C23.9912 32.504 23.1352 33.16 23.1352 34.584V34.72C23.1352 36.072 23.8792 36.736 25.0472 36.736ZM27.0002 36.664H27.7842V33.432C28.0642 33.296 28.4562 33.176 28.8002 33.176C29.4162 33.176 29.5442 33.36 29.5442 33.808V36.664H30.3362V33.624C30.3362 32.832 29.9522 32.504 29.1602 32.504C28.6642 32.504 28.1602 32.688 27.8242 32.92H27.7842V30.824H27.0002V36.664Z" fill="#1975F5"/>
</g>
<defs>
<clipPath id="clip0_323_479">
<rect width="40" height="40" fill="white" transform="translate(0.101074 0.926758)"/>
</clipPath>
</defs>
</svg>
