<svg width="40" height="41" viewBox="0 0 40 41" fill="none" xmlns="http://www.w3.org/2000/svg">
<g clip-path="url(#clip0_326_598)">
<rect width="40" height="40" transform="translate(0 0.926758)" fill="white"/>
<path fill-rule="evenodd" clip-rule="evenodd" d="M20 23.2085C17.0083 23.2085 14.5833 25.7188 14.5833 28.8119V31.4269H25.4167V28.8119C25.4167 25.7188 22.9917 23.2085 20 23.2085ZM10 29.1855V31.4269H12.9167V28.8119C12.9167 27.2729 13.2167 25.8683 13.7083 24.8522C11.575 25.3602 10 27.1085 10 29.1855ZM27.0833 31.4269H30V29.1855C30 27.1085 28.425 25.3602 26.2917 24.8522C26.7833 25.8683 27.0833 27.2729 27.0833 28.8119V31.4269Z" fill="#1975F5"/>
<circle cx="20.0365" cy="15.6146" r="5.00917" fill="#1975F5"/>
<path fill-rule="evenodd" clip-rule="evenodd" d="M16.8328 21.5577C14.8667 20.9637 13.435 19.1381 13.435 16.9782C13.435 16.5043 13.504 16.0465 13.6323 15.6143C11.6237 15.6902 10.0186 17.3425 10.0186 19.3697C10.0186 21.4453 11.7012 23.128 13.7768 23.128C15.0361 23.128 16.1508 22.5085 16.8328 21.5577Z" fill="#1975F5"/>
<path fill-rule="evenodd" clip-rule="evenodd" d="M23.377 21.5576C25.343 20.9636 26.7746 19.1381 26.7746 16.9782C26.7746 16.5043 26.7057 16.0465 26.5773 15.6143C28.586 15.6901 30.1912 17.3425 30.1912 19.3697C30.1912 21.4453 28.5086 23.128 26.433 23.128C25.1736 23.128 24.0589 22.5085 23.377 21.5576Z" fill="#1975F5"/>
<rect x="1.04492" y="40" width="38" height="2" rx="1" fill="#1975F5"/>
</g>
<defs>
<clipPath id="clip0_326_598">
<rect width="40" height="40" fill="white" transform="translate(0 0.926758)"/>
</clipPath>
</defs>
</svg>
