<svg width="41" height="41" viewBox="0 0 41 41" fill="none" xmlns="http://www.w3.org/2000/svg">
<g clip-path="url(#clip0_325_1273)">
<rect width="40" height="40" transform="translate(0.202148 0.926758)" fill="white"/>
<rect x="1" y="40" width="38" height="2" rx="1" fill="#1975F5"/>
<circle cx="20" cy="20" r="10.3739" stroke="#1975F5" stroke-width="1.25229"/>
<circle cx="20" cy="17" r="3.58257" fill="#1975F5" stroke="#1975F5" stroke-width="0.834862"/>
<path fill-rule="evenodd" clip-rule="evenodd" d="M12.1274 26.9033C13.6995 24.0411 16.7424 22.1011 20.2385 22.1011C23.7347 22.1011 26.7778 24.0413 28.3497 26.9037C28.156 27.1244 27.9533 27.3371 27.7424 27.5413C26.353 24.8083 23.5144 22.9359 20.2385 22.9359C16.9627 22.9359 14.1242 24.8082 12.7347 27.541C12.5238 27.3368 12.3212 27.124 12.1274 26.9033Z" fill="#1975F5"/>
<path fill-rule="evenodd" clip-rule="evenodd" d="M20.2385 22.1011C23.3231 22.1011 26.055 23.6113 27.735 25.9327C28.9973 24.2894 29.7477 22.2323 29.7477 20C29.7477 14.6165 25.3835 10.2523 20 10.2523C14.6165 10.2523 10.2523 14.6165 10.2523 20C10.2523 22.3793 11.1048 24.5596 12.521 26.2519C14.1761 23.7507 17.0147 22.1011 20.2385 22.1011ZM20 31C26.0751 31 31 26.0751 31 20C31 13.9249 26.0751 9 20 9C13.9249 9 9 13.9249 9 20C9 26.0751 13.9249 31 20 31Z" fill="#1975F5"/>
</g>
<defs>
<clipPath id="clip0_325_1273">
<rect width="40" height="40" fill="white" transform="translate(0.202148 0.926758)"/>
</clipPath>
</defs>
</svg>
