<svg width="40" height="41" viewBox="0 0 40 41" fill="none" xmlns="http://www.w3.org/2000/svg">
<g clip-path="url(#clip0_323_478)">
<rect width="40" height="40" transform="translate(0 0.926758)" fill="white"/>
<path fill-rule="evenodd" clip-rule="evenodd" d="M19.6682 6.1715C19.9919 5.8582 20.5058 5.8582 20.8295 6.1715L31.0578 16.0715C31.5969 16.5934 31.2275 17.5063 30.4771 17.5063H28.3857V26.4806C28.3857 27.4028 27.6382 28.1503 26.716 28.1503H24.2114C23.2893 28.1503 22.5417 27.4028 22.5417 26.4806V20.6366H17.5325V26.4806C17.5325 27.4028 16.785 28.1503 15.8628 28.1503H13.3582C12.436 28.1503 11.6885 27.4028 11.6885 26.4806V17.5063H10.0206C9.27026 17.5063 8.90082 16.5934 9.43999 16.0715L19.6682 6.1715Z" fill="#1975F5"/>
<path d="M8.81249 37.64V35.096H10.3965V37.64H11.2205V35.096H12.8365V34.44H6.39649V35.096H7.98849V37.64H8.81249ZM12.0365 33.432V32.76H8.05249V30.824H7.22849V33.432H12.0365ZM19.7584 36.688V36.032H13.3184V36.688H19.7584ZM19.5904 33.824C18.5184 33.632 16.9744 32.632 16.9744 31.408V30.936H16.1184V31.408C16.1184 32.64 14.6624 33.608 13.5024 33.792L13.9024 34.464C14.9824 34.2 16.2064 33.392 16.5344 32.512C16.9024 33.376 18.1104 34.184 19.1584 34.464L19.5904 33.824ZM24.6882 35.032C24.4002 35.072 24.0162 35.112 23.5522 35.152L23.7922 32.376L22.9842 32.296L22.8082 35.192H22.7042C22.4642 35.208 22.2082 35.216 21.9522 35.224L21.7842 32.304L20.9922 32.4L21.2242 35.24C20.8882 35.248 20.5362 35.248 20.1842 35.248L20.3122 35.936C20.9682 35.936 21.7362 35.92 22.4642 35.88C23.3922 35.832 24.2482 35.752 24.7442 35.672L24.6882 35.032ZM26.1042 37.632V30.504H25.2882V37.632H26.1042ZM24.4082 31.816V31.16H20.4162V31.816H24.4082ZM33.6021 36.032H27.1621V36.68H33.6021V36.032ZM32.8501 34.416V33.76H28.8101V31.792H32.7781V31.144H27.9861V34.416H32.8501Z" fill="#1975F5"/>
</g>
<defs>
<clipPath id="clip0_323_478">
<rect width="40" height="40" fill="white" transform="translate(0 0.926758)"/>
</clipPath>
</defs>
</svg>
