<svg width="40" height="40" viewBox="0 0 40 40" fill="none" xmlns="http://www.w3.org/2000/svg">
<rect width="40" height="40" fill="white"/>
<path fill-rule="evenodd" clip-rule="evenodd" d="M20 22.2817C17.0083 22.2817 14.5833 24.7921 14.5833 27.8852V30.5001H25.4167V27.8852C25.4167 24.7921 22.9917 22.2817 20 22.2817ZM10 28.2587V30.5001H12.9167V27.8852C12.9167 26.3461 13.2167 24.9415 13.7083 23.9254C11.575 24.4335 10 26.1817 10 28.2587ZM27.0833 30.5001H30V28.2587C30 26.1817 28.425 24.4335 26.2917 23.9254C26.7833 24.9415 27.0833 26.3461 27.0833 27.8852V30.5001Z" fill="#67676B"/>
<circle cx="20.0365" cy="14.6879" r="5.00917" fill="#67676B"/>
<path fill-rule="evenodd" clip-rule="evenodd" d="M13.6319 14.688C11.6232 14.7639 10.0181 16.4162 10.0181 18.4435C10.0181 20.5191 11.7007 22.2017 13.7763 22.2017C15.0357 22.2017 16.1504 21.5822 16.8323 20.6314C14.8662 20.0373 13.4346 18.2118 13.4346 16.0519C13.4346 15.578 13.5035 15.1202 13.6319 14.688Z" fill="#67676B"/>
<path fill-rule="evenodd" clip-rule="evenodd" d="M23.376 20.6314C25.342 20.0373 26.7736 18.2118 26.7736 16.0519C26.7736 15.578 26.7047 15.1202 26.5763 14.688C28.5851 14.7638 30.1902 16.4162 30.1902 18.4435C30.1902 20.5191 28.5076 22.2017 26.432 22.2017C25.1726 22.2017 24.0579 21.5822 23.376 20.6314Z" fill="#67676B"/>
</svg>
