<svg width="40" height="40" viewBox="0 0 40 40" fill="none" xmlns="http://www.w3.org/2000/svg">
<g clip-path="url(#clip0_326_561)">
<rect width="40" height="40" fill="white"/>
<path d="M13.6384 31.7025H15.0864C15.0224 32.6305 14.3024 33.3425 13.3504 33.6625L13.8064 34.3025C14.5424 34.0545 15.2784 33.3665 15.5184 32.7185C15.8224 33.3425 16.5744 33.9105 17.1424 34.0865L17.5584 33.4545C16.7824 33.2385 16.0144 32.6545 15.9424 31.7025H17.3984V31.0465H13.6384V31.7025ZM19.3744 36.6305V35.9665H15.3104V34.5025H14.4944V36.6305H19.3744ZM19.1824 34.8385V29.6705H18.3664V34.8385H19.1824ZM14.5104 30.5665H16.5264V29.9105H14.5104V30.5665ZM25.8242 30.0785H21.0562V30.7505H25.0002C24.9922 31.5745 24.9362 32.4865 24.8002 33.1185H20.2402V33.7825H23.0402V36.7985H23.8562V33.7825H26.6802V33.1185H25.5842C25.7602 32.2705 25.8242 31.2705 25.8242 30.0785Z" fill="#6C6D6C"/>
<path fill-rule="evenodd" clip-rule="evenodd" d="M20.0005 19.2817C17.0088 19.2817 14.5838 21.7921 14.5838 24.8852V27.5001H25.4172V24.8852C25.4172 21.7921 22.9922 19.2817 20.0005 19.2817ZM10.0005 25.2587V27.5001H12.9172V24.8852C12.9172 23.3461 13.2172 21.9415 13.7088 20.9254C11.5755 21.4335 10.0005 23.1817 10.0005 25.2587ZM27.0838 27.5001H30.0005V25.2587C30.0005 23.1817 28.4255 21.4335 26.2922 20.9254C26.7838 21.9415 27.0838 23.3461 27.0838 24.8852V27.5001Z" fill="#67676B"/>
<circle cx="20.037" cy="11.6879" r="5.00917" fill="#67676B"/>
<path fill-rule="evenodd" clip-rule="evenodd" d="M13.6324 11.688C11.6237 11.7639 10.0186 13.4162 10.0186 15.4435C10.0186 17.5191 11.7012 19.2017 13.7768 19.2017C15.0362 19.2017 16.1509 18.5822 16.8328 17.6314C14.8667 17.0373 13.4351 15.2118 13.4351 13.0519C13.4351 12.578 13.504 12.1202 13.6324 11.688Z" fill="#67676B"/>
<path fill-rule="evenodd" clip-rule="evenodd" d="M23.3765 17.6314C25.3425 17.0373 26.7741 15.2118 26.7741 13.0519C26.7741 12.578 26.7052 12.1202 26.5768 11.688C28.5855 11.7638 30.1907 13.4162 30.1907 15.4435C30.1907 17.5191 28.5081 19.2017 26.4325 19.2017C25.1731 19.2017 24.0584 18.5822 23.3765 17.6314Z" fill="#67676B"/>
</g>
<defs>
<clipPath id="clip0_326_561">
<rect width="40" height="40" fill="white"/>
</clipPath>
</defs>
</svg>
