<svg width="40" height="41" viewBox="0 0 40 41" fill="none" xmlns="http://www.w3.org/2000/svg">
<g clip-path="url(#clip0_323_487)">
<rect width="40" height="40" transform="translate(0 0.926758)" fill="white"/>
<path fill-rule="evenodd" clip-rule="evenodd" d="M19.2981 6.771H16.6459C16.0155 6.771 15.4054 6.85834 14.8273 7.02159L18.7171 12.6149H23.3622L19.2981 6.771ZM25.396 12.6149H29.1171C28.7062 9.32034 25.8958 6.771 22.4899 6.771H21.3319L25.396 12.6149ZM10.0187 12.6149C10.2805 10.5158 11.5163 8.7193 13.2596 7.69186L16.6833 12.6149H10.0187Z" fill="#1975F5"/>
<path fill-rule="evenodd" clip-rule="evenodd" d="M29.2206 14.2852H10.0188V20.1292C10.0188 23.8178 13.009 26.8081 16.6977 26.8081H22.5417C26.2304 26.8081 29.2206 23.8178 29.2206 20.1292V14.2852ZM22.2546 20.0004C22.7746 19.6729 22.7746 18.915 22.2546 18.5876L17.7684 15.762C17.2125 15.4118 16.4886 15.8114 16.4886 16.4684L16.4886 22.1196C16.4886 22.7766 17.2125 23.1761 17.7684 22.826L22.2546 20.0004Z" fill="#1975F5"/>
<path d="M19.182 34.168V30.504H18.366V34.168H19.182ZM19.422 37.576V36.928H15.374V36.36H19.182V34.544H14.518V35.2H18.366V35.752H14.55V37.576H19.422ZM17.486 33.12C16.862 33.28 15.374 33.344 14.502 33.344V32.64H16.87V30.792H13.638V31.44H16.046V32.024H13.678V34H14.582C15.614 33.992 16.886 33.92 17.598 33.76L17.486 33.12ZM26.6799 36.688V36.032H20.2399V36.688H26.6799ZM26.5119 33.824C25.4399 33.632 23.8959 32.632 23.8959 31.408V30.936H23.0399V31.408C23.0399 32.64 21.5839 33.608 20.4239 33.792L20.8239 34.464C21.9039 34.2 23.1279 33.392 23.4559 32.512C23.8239 33.376 25.0319 34.184 26.0799 34.464L26.5119 33.824Z" fill="#1975F5"/>
</g>
<defs>
<clipPath id="clip0_323_487">
<rect width="40" height="40" fill="white" transform="translate(0 0.926758)"/>
</clipPath>
</defs>
</svg>
