<svg width="41" height="41" viewBox="0 0 41 41" fill="none" xmlns="http://www.w3.org/2000/svg">
<g clip-path="url(#clip0_323_488)">
<rect width="40" height="40" transform="translate(0.916016 0.926758)" fill="white"/>
<path fill-rule="evenodd" clip-rule="evenodd" d="M11.7018 10.0078C10.2037 10.0078 8.98926 11.2223 8.98926 12.7204V20.2682C8.98926 21.7663 10.2037 22.9808 11.7018 22.9808H30.2767C31.7748 22.9808 32.9893 21.7663 32.9893 20.2682V12.7204C32.9893 11.2223 31.7748 10.0078 30.2767 10.0078H11.7018ZM15.8117 20.305V19.5772H12.6131V13.5555H11.7184V20.305H12.4369H12.6131H15.8117ZM18.4604 20.305V13.5555H17.5657V20.305H18.4604ZM22.6991 20.305H22.5971L20.1031 13.5555H21.072L22.9868 19.1197L24.9196 13.5555H25.8885L23.3898 20.305H23.2878H22.6991ZM31.7497 20.305V19.5772H28.3563V17.1852H31.2768V16.4574H28.3563V14.2879H31.7033V13.5555H28.3563H28.1755H27.4616V20.305H28.1755H28.3563H31.7497Z" fill="#1975F5"/>
<path d="M17.3731 33.968V33.288H16.3091V30.504H15.4851V37.632H16.3091V33.968H17.3731ZM14.9251 35.064C13.9811 35.248 12.5571 35.296 11.8531 35.296V33.752H14.2291V31.128H11.0051V31.784H13.4051V33.096H11.0371V35.976H11.8291C13.0371 35.96 14.2291 35.88 15.0131 35.736L14.9251 35.064ZM23.559 37.632V30.504H22.743V37.632H23.559ZM17.903 33.552C17.903 35.056 18.583 36.048 19.727 36.048C20.871 36.048 21.535 35.056 21.535 33.56C21.535 32.048 20.871 31.056 19.727 31.056C18.583 31.056 17.903 32.048 17.903 33.552ZM20.759 33.552C20.759 34.696 20.335 35.384 19.727 35.384C19.127 35.384 18.711 34.696 18.711 33.552C18.711 32.408 19.127 31.728 19.727 31.728C20.335 31.728 20.759 32.408 20.759 33.552ZM31.0568 36.672V36.016H24.6168V36.672H31.0568ZM30.2488 34.648V31.032H29.4328V32.224H26.2488V31.04H25.4328V34.648H30.2488ZM29.4328 33.984H26.2488V32.864H29.4328V33.984Z" fill="#1975F5"/>
</g>
<defs>
<clipPath id="clip0_323_488">
<rect width="40" height="40" fill="white" transform="translate(0.916016 0.926758)"/>
</clipPath>
</defs>
</svg>
