<svg width="40" height="41" viewBox="0 0 40 41" fill="none" xmlns="http://www.w3.org/2000/svg">
<g clip-path="url(#clip0_325_1280)">
<rect width="40" height="40" transform="translate(0 0.926758)" fill="white"/>
<path fill-rule="evenodd" clip-rule="evenodd" d="M19.298 9.771H16.6458C16.0153 9.771 15.4053 9.85834 14.8271 10.0216L18.717 15.6149H23.3621L19.298 9.771ZM25.3959 15.6149H29.117C28.7061 12.3203 25.8957 9.771 22.4898 9.771H21.3318L25.3959 15.6149ZM10.0186 15.6149C10.2803 13.5158 11.5162 11.7193 13.2595 10.6919L16.6832 15.6149H10.0186Z" fill="#1975F5"/>
<path fill-rule="evenodd" clip-rule="evenodd" d="M29.2204 17.2852H10.0186V23.1292C10.0186 26.8178 13.0088 29.8081 16.6975 29.8081H22.5415C26.2301 29.8081 29.2204 26.8178 29.2204 23.1292V17.2852ZM22.2544 23.0004C22.7743 22.6729 22.7743 21.915 22.2544 21.5876L17.7682 18.762C17.2122 18.4118 16.4884 18.8114 16.4884 19.4684L16.4884 25.1196C16.4884 25.7766 17.2122 26.1761 17.7682 25.826L22.2544 23.0004Z" fill="#1975F5"/>
<rect x="0.796875" y="40" width="38" height="2" rx="1" fill="#1975F5"/>
</g>
<defs>
<clipPath id="clip0_325_1280">
<rect width="40" height="40" fill="white" transform="translate(0 0.926758)"/>
</clipPath>
</defs>
</svg>
