<svg width="41" height="41" viewBox="0 0 41 41" fill="none" xmlns="http://www.w3.org/2000/svg">
<g clip-path="url(#clip0_323_485)">
<rect width="40" height="40" transform="translate(0.0371094 0.926758)" fill="white"/>
<path fill-rule="evenodd" clip-rule="evenodd" d="M30.9271 16.789C30.9271 21.8609 26.068 25.9724 20.0739 25.9724C18.9001 25.9724 17.7698 25.8148 16.711 25.5231C16.6697 25.5846 16.6098 25.6376 16.532 25.6741L13.6478 27.0271C13.3526 27.1656 13.0155 26.9631 13.0332 26.6578L13.1934 23.8915C10.768 22.2073 9.2207 19.651 9.2207 16.789C9.2207 11.7171 14.0799 7.60547 20.0739 7.60547C26.068 7.60547 30.9271 11.7171 30.9271 16.789ZM17.8125 17.2064L13.7426 20.1284L17.3603 14.2843L21.8825 16.7889L25.9524 13.8669L22.3347 19.7109L17.8125 17.2064Z" fill="#1975F5"/>
<path d="M12.9741 31.36H10.1261V35.728H12.9741V33.792H13.7421V37.296H14.5181V30.648H13.7421V33.112H12.9741V31.36ZM15.9021 37.632V30.504H15.1101V37.632H15.9021ZM12.2061 35.088H10.9021V32.008H12.2061V35.088ZM22.8239 37.632V30.504H22.0399V37.632H22.8239ZM21.4159 37.296V30.648H20.6479V32.992H19.6239V33.672H20.6479V37.296H21.4159ZM20.4239 35.296C19.5919 34.784 18.9919 33.68 18.9919 32.32V31.208H18.1999V32.328C18.1999 33.792 17.5359 34.92 16.6719 35.488L17.1679 36.048C17.8559 35.616 18.4239 34.824 18.5999 34.048C18.8079 34.792 19.4479 35.544 19.9519 35.864L20.4239 35.296ZM28.1938 35.312C27.1458 34.744 26.3778 33.68 26.3778 32.24V31.896H27.8258V31.248H24.0418V31.896H25.5298V32.248C25.5298 33.688 24.8178 34.816 23.6818 35.456L24.2018 36.056C25.0498 35.608 25.7698 34.664 25.9538 33.896C26.1858 34.632 27.0498 35.544 27.7138 35.912L28.1938 35.312ZM29.6098 37.632V30.504H28.7938V37.632H29.6098Z" fill="#1975F5"/>
</g>
<defs>
<clipPath id="clip0_323_485">
<rect width="40" height="40" fill="white" transform="translate(0.0371094 0.926758)"/>
</clipPath>
</defs>
</svg>
