<svg width="41" height="41" viewBox="0 0 41 41" fill="none" xmlns="http://www.w3.org/2000/svg">
<g clip-path="url(#clip0_325_1278)">
<rect width="40" height="40" transform="translate(0.0371094 0.926758)" fill="white"/>
<path fill-rule="evenodd" clip-rule="evenodd" d="M30.9271 19.789C30.9271 24.8609 26.068 28.9724 20.0739 28.9724C18.9001 28.9724 17.7698 28.8148 16.711 28.5231C16.6697 28.5846 16.6098 28.6376 16.532 28.6741L13.6478 30.0271C13.3526 30.1656 13.0155 29.9631 13.0332 29.6578L13.1934 26.8915C10.768 25.2073 9.2207 22.651 9.2207 19.789C9.2207 14.7171 14.0799 10.6055 20.0739 10.6055C26.068 10.6055 30.9271 14.7171 30.9271 19.789ZM17.8125 20.2064L13.7426 23.1284L17.3603 17.2843L21.8825 19.7889L25.9524 16.8669L22.3347 22.7109L17.8125 20.2064Z" fill="#1975F5"/>
<rect x="1" y="40" width="38" height="2" rx="1" fill="#1975F5"/>
</g>
<defs>
<clipPath id="clip0_325_1278">
<rect width="40" height="40" fill="white" transform="translate(0.0371094 0.926758)"/>
</clipPath>
</defs>
</svg>
