<svg width="41" height="41" viewBox="0 0 41 41" fill="none" xmlns="http://www.w3.org/2000/svg">
<g clip-path="url(#clip0_325_1272)">
<rect width="40" height="40" transform="translate(0.101562 0.926758)" fill="white"/>
<rect x="9.07634" y="11.2316" width="22.1239" height="15.445" rx="2.7133" stroke="#1975F5" stroke-width="1.25229"/>
<path d="M24.6185 18.219C25.2036 18.5342 25.2036 19.3736 24.6185 19.6888L17.8211 23.3517C17.2649 23.6514 16.5902 23.2486 16.5902 22.6168L16.5902 15.291C16.5902 14.6592 17.2649 14.2564 17.8211 14.5561L24.6185 18.219Z" fill="#1975F5"/>
<rect x="14.2944" y="28.9727" width="11.6881" height="1.66972" rx="0.417431" fill="#1975F5"/>
<rect x="1.00049" y="40" width="38" height="2" rx="1" fill="#1975F5"/>
<rect x="9.62615" y="11.6261" width="22.1239" height="15.445" rx="2.7133" fill="#1975F5" stroke="#1975F5" stroke-width="1.25229"/>
<path d="M25.1683 18.6135C25.7534 18.9288 25.7534 19.7681 25.1683 20.0834L18.3709 23.7462C17.8147 24.046 17.14 23.6431 17.14 23.0113L17.14 15.6856C17.14 15.0537 17.8147 14.6509 18.3709 14.9506L25.1683 18.6135Z" fill="white"/>
</g>
<defs>
<clipPath id="clip0_325_1272">
<rect width="40" height="40" fill="white" transform="translate(0.101562 0.926758)"/>
</clipPath>
</defs>
</svg>
