<svg width="40" height="40" viewBox="0 0 40 40" fill="none" xmlns="http://www.w3.org/2000/svg">
<g clip-path="url(#clip0_323_467)">
<rect width="40" height="40" fill="white"/>
<path fill-rule="evenodd" clip-rule="evenodd" d="M27.1358 15.3286H28.3858H29.4511L20.2486 6.4214L11.0462 15.3286H11.6882H12.9382V16.5786V25.5536C12.9382 25.7854 13.1262 25.9733 13.358 25.9733H15.8625C16.0943 25.9733 16.2823 25.7854 16.2823 25.5536V19.7095V18.4595H17.5323H22.5417H23.7917V19.7095V25.5536C23.7917 25.7854 23.9797 25.9733 24.2115 25.9733H26.7161C26.9479 25.9733 27.1358 25.7854 27.1358 25.5536V16.5786V15.3286ZM30.1882 16.042C30.188 16.0418 30.1878 16.0416 30.1876 16.0414L30.1882 16.042ZM17.5323 20.9595V19.7095H18.7823H21.2917H22.5417V20.9595V25.5536C22.5417 26.4757 23.2893 27.2233 24.2115 27.2233H26.7161C27.6382 27.2233 28.3858 26.4757 28.3858 25.5536V17.8286V16.5786H29.6358H30.4769C31.2273 16.5786 31.5967 15.6657 31.0575 15.1438L20.8293 5.24377C20.5056 4.93046 19.9917 4.93046 19.668 5.24377L9.43975 15.1438C8.90058 15.6657 9.27002 16.5786 10.0204 16.5786H10.4382H11.6882V17.8286V25.5536C11.6882 26.4757 12.4358 27.2233 13.358 27.2233H15.8625C16.7847 27.2233 17.5323 26.4757 17.5323 25.5536V20.9595Z" fill="#67676B"/>
<path d="M8.81249 36.8065V34.2625H10.3965V36.8065H11.2205V34.2625H12.8365V33.6065H6.39649V34.2625H7.98849V36.8065H8.81249ZM12.0365 32.5985V31.9265H8.05249V29.9905H7.22849V32.5985H12.0365ZM19.7584 35.8545V35.1985H13.3184V35.8545H19.7584ZM19.5904 32.9905C18.5184 32.7985 16.9744 31.7985 16.9744 30.5745V30.1025H16.1184V30.5745C16.1184 31.8065 14.6624 32.7745 13.5024 32.9585L13.9024 33.6305C14.9824 33.3665 16.2064 32.5585 16.5344 31.6785C16.9024 32.5425 18.1104 33.3505 19.1584 33.6305L19.5904 32.9905ZM24.6882 34.1985C24.4002 34.2385 24.0162 34.2785 23.5522 34.3185L23.7922 31.5425L22.9842 31.4625L22.8082 34.3585H22.7042C22.4642 34.3745 22.2082 34.3825 21.9522 34.3905L21.7842 31.4705L20.9922 31.5665L21.2242 34.4065C20.8882 34.4145 20.5362 34.4145 20.1842 34.4145L20.3122 35.1025C20.9682 35.1025 21.7362 35.0865 22.4642 35.0465C23.3922 34.9985 24.2482 34.9185 24.7442 34.8385L24.6882 34.1985ZM26.1042 36.7985V29.6705H25.2882V36.7985H26.1042ZM24.4082 30.9825V30.3265H20.4162V30.9825H24.4082ZM33.6021 35.1985H27.1621V35.8465H33.6021V35.1985ZM32.8501 33.5825V32.9265H28.8101V30.9585H32.7781V30.3105H27.9861V33.5825H32.8501Z" fill="#6C6D6C"/>
</g>
<defs>
<clipPath id="clip0_323_467">
<rect width="40" height="40" fill="white"/>
</clipPath>
</defs>
</svg>
