<svg width="41" height="40" viewBox="0 0 41 40" fill="none" xmlns="http://www.w3.org/2000/svg">
<g clip-path="url(#clip0_323_470)">
<rect width="40" height="40" transform="translate(0.302734)" fill="white"/>
<mask id="path-1-inside-1_323_470" fill="white">
<rect x="10.3213" y="5.84424" width="20.0367" height="20.0367" rx="0.834862"/>
</mask>
<rect x="10.3213" y="5.84424" width="20.0367" height="20.0367" rx="0.834862" stroke="#67676B" stroke-width="2.50459" mask="url(#path-1-inside-1_323_470)"/>
<path d="M29.5231 12.5229H16.5828V19.2018H23.6791V25.0459" stroke="#67676B" stroke-width="0.834862"/>
<path d="M19.6291 36.7985V29.6705H18.8451V36.7985H19.6291ZM18.2211 36.4625V29.8145H17.4531V32.5345H16.5011V33.2065H17.4531V36.4625H18.2211ZM16.6291 30.5265H13.9011V31.1985H15.8211C15.7331 32.6705 14.9091 33.9585 13.4931 34.7985L14.0371 35.3585C15.7491 34.2305 16.6131 32.7025 16.6291 30.5265ZM24.399 31.7585C24.399 30.7665 23.575 30.0625 22.567 30.0625C21.551 30.0625 20.743 30.7825 20.743 31.7585C20.743 32.7665 21.567 33.4065 22.567 33.4065C23.591 33.4065 24.399 32.7665 24.399 31.7585ZM23.599 31.7505C23.599 32.3345 23.175 32.7745 22.567 32.7745C21.959 32.7745 21.535 32.3425 21.535 31.7505C21.535 31.1985 21.951 30.7425 22.567 30.7425C23.207 30.7425 23.599 31.1905 23.599 31.7505ZM25.591 29.6705V33.6785H26.407V29.6705H25.591ZM26.415 36.7105V34.0625H21.751V36.7105H26.415ZM25.599 36.0545H22.575V34.7025H25.599V36.0545Z" fill="#6C6D6C"/>
</g>
<defs>
<clipPath id="clip0_323_470">
<rect width="40" height="40" fill="white" transform="translate(0.302734)"/>
</clipPath>
</defs>
</svg>
